<svg width="196" height="196" viewBox="0 0 196 196" fill="none" xmlns="http://www.w3.org/2000/svg">
<mask id="mask0_495_292" style="mask-type:luminance" maskUnits="userSpaceOnUse" x="28" y="29" width="140" height="139">
<path d="M151.662 141.97C175.97 112.447 171.643 68.8917 141.998 44.6851C112.352 20.4785 68.6146 24.7875 44.307 54.3096C19.9993 83.8318 24.3264 127.388 53.9717 151.594C83.617 175.801 127.355 171.492 151.662 141.97Z" fill="white"/>
<path d="M151.662 141.97C175.97 112.447 171.643 68.8917 141.998 44.6851C112.352 20.4785 68.6146 24.7875 44.307 54.3096C19.9993 83.8318 24.3264 127.388 53.9717 151.594C83.617 175.801 127.355 171.492 151.662 141.97Z" stroke="white"/>
</mask>
<g mask="url(#mask0_495_292)">
<path d="M80.4226 26H-8V73.0954H80.4226V26Z" fill="#00237C"/>
<path d="M16.2732 26H-8V40.8108L110.402 118.667L139.224 106.849L16.2732 26Z" fill="white"/>
<path d="M-8 27.2354V37.4204L111.974 116.306L116.674 109.21L-8 27.2354Z" fill="#CF142B"/>
<path d="M205 26H116.577V73.0954H205V26Z" fill="#00237C"/>
<path d="M180.741 26H205V40.8108L86.5978 118.667L57.776 106.849L180.741 26Z" fill="white"/>
<path d="M205 27.2354V37.4204L85.0264 116.306L80.3262 109.21L205 27.2354Z" fill="#CF142B"/>
<path d="M205 120.905H116.577V168H205V120.905Z" fill="#00237C"/>
<path d="M180.741 168H205V153.189L86.5978 75.3328L57.776 87.1512L180.741 168Z" fill="white"/>
<path d="M205 166.765V156.593L85.0264 77.6937L80.3262 84.7903L205 166.765Z" fill="#CF142B"/>
<path d="M80.4226 120.905H-8V168H80.4226V120.905Z" fill="#00237C"/>
<path d="M16.2732 168H-8V153.189L110.402 75.3328L139.224 87.1512L16.2732 168Z" fill="white"/>
<path d="M-8 166.765V156.593L111.974 77.6937L116.674 84.7903L-8 166.765Z" fill="#CF142B"/>
<path d="M205 73.0954H116.757V26H79.8851V73.0954H-8V119.848H79.8851V168H116.757V119.848H205V73.0954Z" fill="white"/>
<path d="M205 82.6627H108.941V26H87.7142V82.6627H-8V110.28H87.7142V168H108.941V110.28H205V82.6627Z" fill="#CF142B"/>
</g>
</svg>
