<svg width="195" height="189" viewBox="0 0 195 189" fill="none" xmlns="http://www.w3.org/2000/svg">
<g filter="url(#filter0_d_495_58)">
<path d="M153.039 136.864C178.296 106.189 173.798 60.935 142.999 35.7863C112.2 10.6377 66.7567 15.1123 41.4993 45.7879C16.2419 76.4635 20.7401 121.717 51.5391 146.866C82.3381 172.015 127.781 167.54 153.039 136.864Z" fill="#5271FF" stroke="white" stroke-width="6"/>
<g clip-path="url(#clip0_495_58)">
<path d="M136.831 95.8903C136.918 98.5347 116.986 112.783 96.873 112.952C76.4294 113.126 55.7979 99.1899 55.7979 95.9054V108.286C55.7979 111.571 69.4536 123.394 96.873 123.394C124.292 123.394 136.92 110.931 136.831 108.286V95.8903Z" fill="#324446"/>
<path d="M136.81 95.5041C136.14 87.4232 118.267 80.9497 96.3156 80.9497C74.3641 80.9497 56.4741 87.4297 55.8195 95.515C55.8065 95.6668 55.7979 95.8209 55.7979 95.9727C55.7979 104.203 73.6469 112.842 95.7755 112.95C95.9548 112.95 96.1342 112.953 96.3156 112.953C96.3394 112.953 96.361 112.953 96.3848 112.953C96.5468 112.953 96.711 112.955 96.873 112.953C96.9702 112.953 97.0696 112.948 97.1668 112.948C119.14 112.779 136.814 104.171 136.831 95.9836V95.9597C136.831 95.8057 136.823 95.6538 136.81 95.502V95.5041Z" fill="#4E6566"/>
<path d="M134.718 61.488L96.3156 82.5485L57.9129 61.488L57.9863 95.3327C57.9863 98.4392 69.9505 109.976 96.8427 109.976C125.759 109.976 134.727 97.834 134.645 95.3327L134.718 61.488Z" fill="#324446"/>
<g style="mix-blend-mode:multiply" opacity="0.5">
<path d="M57.9626 88.0391C57.9626 83.772 64.4631 83.4964 73.3422 87.4968C88.1689 94.1785 105.171 109.95 117.401 107.394C128.916 104.067 133.694 98.4262 134.511 96.0247C134.567 95.4997 134.612 95.0593 134.643 94.7447L134.677 79.2553C134.118 79.2379 119.038 78.7802 104.091 78.2834L96.3113 82.5484L87.484 77.7085C79.7391 77.4243 74.2129 77.1857 74.3122 77.0859C74.6363 76.7605 58.8656 74.1572 58.8656 74.1572L57.9388 74.7083L57.9604 88.0413L57.9626 88.0391Z" fill="#0B2025"/>
</g>
<path opacity="0.7" d="M134.697 91.0047V78.5676L122.383 83.9173L123.031 106.045L133.977 96.6451L134.697 91.0047Z" fill="#18AEC8"/>
<path d="M138.065 61.0324L96.2897 42.1631L54.8473 61.0324L35 64.9352V69.044L96.2897 96.3761L158.124 69.044H158.126V64.9352L138.065 61.0324Z" fill="#324446"/>
<path d="M96.2897 37L35 64.9352L96.2897 92.2673L158.126 64.9352L96.2897 37Z" fill="#4E6566"/>
<path opacity="0.4" d="M97.1798 61.3796C97.1798 61.3796 69.3175 69.6949 65.0853 77.1901C64.6403 77.9776 64.3486 79.314 64.1607 80.8868L66.5911 82.2925C66.5911 82.2925 66.6192 78.9842 67.0318 78.2575C71.2553 70.8382 99.5907 62.2799 99.5907 62.2799L97.1776 61.3796H97.1798Z" fill="#0B2025"/>
<g style="mix-blend-mode:multiply" opacity="0.5">
<path d="M101.946 61.781C101.946 63.2258 99.5065 64.3973 96.5014 64.3973C93.4963 64.3973 91.0573 63.2258 91.0573 61.781C91.0573 60.3362 93.4942 59.1669 96.5014 59.1669C99.5086 59.1669 101.946 60.3383 101.946 61.781Z" fill="#0B2025"/>
</g>
<path d="M63.4607 91.2781C63.3549 88.9873 62.9919 79.1079 64.5236 76.3918C68.4317 69.4693 93.5935 61.6313 96.1557 60.8459L97.1106 61.5727C92.3837 63.0023 69.6156 70.183 65.7183 77.0296C64.1823 79.7283 64.6705 88.9959 64.8001 91.0742L63.4586 91.2781H63.4607Z" fill="#FCC90D"/>
<path d="M92.6106 63.0001L94.2287 62.5359C94.2287 62.5359 93.4812 61.7462 93.3646 61.6877C93.2479 61.6291 92.6711 61.9176 92.6711 61.9176L92.3578 62.0478C92.6387 62 92.9735 62.8548 92.6106 63.0001Z" fill="#DB8616"/>
<path d="M101.57 60.4554C101.57 61.7982 99.2991 62.8894 96.5014 62.8894C93.7037 62.8894 91.4332 61.7982 91.4332 60.4554C91.4332 59.1125 93.7016 58.0192 96.5014 58.0192C99.3012 58.0192 101.57 59.1082 101.57 60.4554Z" fill="#324446"/>
<path d="M65.0378 94.9097H62.9185V101.758H65.0378V94.9097Z" fill="url(#paint0_linear_495_58)"/>
<path d="M71.2596 118.933C71.2596 118.029 70.4603 110.876 69.0755 104.583C67.9975 99.6734 66.7963 95.198 63.8237 95.198C57.0358 95.198 56.2472 117.072 56.3855 118.935C56.4654 120.029 57.0228 121.159 58.5912 122.042C59.0838 122.32 59.8572 122.528 60.164 122.604C61.1318 122.843 62.333 122.981 63.8215 122.981C64.5215 122.981 65.1631 122.986 65.7399 122.884C66.5004 122.751 66.8611 122.715 67.2781 122.623C70.3674 121.949 71.2575 120.168 71.2596 118.933Z" fill="url(#paint1_linear_495_58)"/>
<path d="M64.5236 95.2872C64.3227 95.233 64.111 95.2026 63.8906 95.1982C63.5514 95.4022 63.1086 95.6864 62.5404 96.066C58.0576 99.0684 56.8435 114.569 56.8154 120.376C57.1546 120.975 57.7141 121.545 58.5912 122.038C59.0838 122.316 59.8572 122.524 60.164 122.6C60.5874 122.704 61.0562 122.789 61.5747 122.851C61.6719 112.996 62.8947 97.7364 63.6206 96.1745C63.6206 96.1745 64.1499 95.6929 64.5236 95.2872Z" fill="#FFCD2E"/>
<path d="M69.8684 121.472C70.8989 120.678 71.2596 119.708 71.2596 118.933C71.2596 117.324 70.6115 95.196 63.8237 95.196C62.8861 95.196 62.0651 95.6147 61.3436 96.3371C60.9525 96.899 64.3184 97.1159 65.351 98.6692C67.7987 102.357 69.8878 109.299 69.8878 121.302C69.8878 121.361 69.877 121.413 69.8705 121.47L69.8684 121.472Z" fill="#D8810E"/>
<path d="M126.742 115.849C131.493 122.274 132.394 129.683 128.754 132.397C125.113 135.111 118.313 132.102 113.56 125.676C108.809 119.25 107.908 111.842 111.548 109.128C115.189 106.414 121.989 109.423 126.742 115.849Z" fill="#AA160B"/>
<path d="M145.894 80.5288L145.916 80.5548C149.147 77.8669 155.35 79.9148 159.818 85.1648C164.022 90.1045 165.199 96.1267 162.702 99.14L99.5043 156.874L82.6038 138.161L145.894 80.5288Z" fill="#CCCACB"/>
<path d="M85.3993 152.44C83.4225 150.116 81.5733 147.802 81.0008 145.426C80.7804 144.504 82.8889 143.411 82.4806 142.636C81.7569 141.261 81.8325 138.957 83.0834 137.883C86.298 135.124 92.5479 137.169 97.0415 142.45C101.535 147.73 102.572 154.249 99.3553 157.006C96.1406 159.766 89.8907 157.722 85.3971 152.44H85.3993Z" fill="#B5C0C9"/>
<g style="mix-blend-mode:multiply" opacity="0.4">
<path d="M127.857 102.795L127.872 102.813C130.05 101.001 134.23 102.383 137.242 105.921C140.074 109.249 140.869 113.308 139.186 115.341L139.249 115.41L96.5943 154.253C96.5943 154.253 98.813 150.272 94.5787 145.179C90.7332 140.554 86.6156 141.946 86.6156 141.946L127.859 102.8L127.857 102.795Z" fill="#90A3AF"/>
</g>
<g style="mix-blend-mode:multiply" opacity="0.4">
<path d="M93.6389 144.515C93.0124 143.779 89.1929 148.107 88.6549 147.387C86.5961 144.628 85.8033 143.426 87.5208 141.953C89.6876 140.094 91.5455 141.614 94.5744 145.174C97.6032 148.734 98.6596 152.477 96.4928 154.336C95.5595 155.136 97.372 153.581 97.3224 151.841C97.2554 149.541 95.3629 146.541 93.6389 144.515Z" fill="#90A3AF"/>
</g>
<path d="M97.0437 142.447C92.5501 137.167 86.3001 135.121 83.0855 137.881C82.9473 138 82.8198 138.128 82.6966 138.261L82.6038 138.159L145.894 80.5288L145.916 80.5548C149.147 77.8669 155.35 79.9148 159.818 85.1648C164.022 90.1045 165.199 96.1267 162.702 99.14L99.9882 157.243L99.5022 156.872C102.54 154.043 101.47 147.647 97.0458 142.447H97.0437Z" fill="#F8FFFF"/>
<path opacity="0.5" d="M134.375 118.346C134.36 118.291 137.952 120.307 137.937 120.257L163.97 95.4172C164.186 90.8615 161.511 87.1454 159.811 85.1473C159.481 84.759 159.139 84.3902 158.791 84.0366L133.018 107.167C133.161 106.6 133.236 106.299 133.383 105.717C132.508 105.806 132.072 105.85 131.197 105.939C131.171 105.375 131.158 105.093 131.13 104.529C130.296 104.737 129.879 104.843 129.043 105.051C128.853 104.546 128.758 104.294 128.568 103.789C127.807 104.101 127.427 104.257 126.667 104.568C126.336 104.14 126.172 103.928 125.841 103.5C125.176 103.893 124.845 104.09 124.18 104.483C123.735 104.147 123.513 103.978 123.065 103.641C122.517 104.095 122.242 104.32 121.693 104.774C121.16 104.535 120.892 104.416 120.358 104.177C119.935 104.67 119.723 104.917 119.3 105.409C118.701 105.273 118.403 105.203 117.807 105.067C117.515 105.579 117.371 105.835 117.079 106.347C116.444 106.312 116.126 106.292 115.489 106.258C115.331 106.772 115.253 107.03 115.096 107.544C114.445 107.607 114.121 107.64 113.471 107.702C113.447 108.201 113.437 108.451 113.413 108.95C112.769 109.108 112.447 109.189 111.805 109.347C111.911 109.815 111.968 110.048 112.067 110.521C111.449 110.772 111.142 110.898 110.527 111.147C110.756 111.573 110.87 111.783 111.114 112.191C110.546 112.527 110.256 112.699 109.69 113.033C110.038 113.395 110.215 113.571 110.583 113.909C110.071 114.332 109.811 114.549 109.312 114.961C109.766 115.25 110.002 115.386 110.49 115.638C110.056 116.139 109.833 116.393 109.42 116.872C109.969 117.074 110.256 117.163 110.859 117.304C110.535 117.853 110.371 118.131 110.053 118.673C110.708 118.747 111.052 118.766 111.743 118.799C111.529 119.4 111.421 119.704 111.214 120.298C111.937 120.252 112.309 120.218 113.054 120.148C112.968 120.784 112.922 121.105 112.845 121.732C113.596 121.576 113.979 121.491 114.746 121.318C114.793 121.973 114.815 122.305 114.884 122.936C115.258 122.804 115.539 122.702 115.822 122.6L95.8641 140.51L98.6272 142.964L101.425 153.236L132.75 124.6C133.001 124.589 131.832 120.951 132.158 120.934C132.169 120.649 132.178 120.404 132.184 120.176L134.163 118.352C134.23 118.352 134.297 118.352 134.373 118.352L134.375 118.346Z" fill="#B3C0C6"/>
<g style="mix-blend-mode:darken" opacity="0.4">
<path d="M162.699 99.1399C163.507 98.1659 163.929 96.8751 163.989 95.4086L163.97 95.4151L138.823 119.372L129.406 127.641L102.399 152.362L99.7247 157.043L99.9861 157.243L162.699 99.1399Z" fill="#5AC7D3"/>
</g>
<path d="M97.9013 158.855C99.7765 158.199 101.181 156.833 101.907 154.928C103.181 151.589 102.118 147.138 99.0679 143.018C93.4315 135.41 87.7433 134.592 84.304 136.358C83.0509 137.002 82.2343 137.948 81.8779 139.165C80.9964 142.168 83.2195 146.036 84.4141 148.112L84.587 148.413C86.1143 151.088 92.2304 156.358 95.6697 154.961C96.7887 154.507 97.5362 153.783 97.8927 152.809C98.6726 150.674 97.2921 148.032 96.5511 146.611L96.4431 146.402C95.4342 144.456 90.4913 139.541 87.6806 140.929C86.81 141.358 86.2677 142.061 86.11 142.959C85.7968 144.749 87.1276 146.912 88.0976 147.927C88.3935 148.238 88.8839 148.248 89.1929 147.949C89.5018 147.652 89.5126 147.159 89.2166 146.849C88.4627 146.06 87.4387 144.363 87.6374 143.228C87.7087 142.823 87.9399 142.536 88.3655 142.326C89.854 141.584 94.1488 145.346 95.0691 147.12L95.1814 147.335C95.7669 148.455 96.9832 150.784 96.4409 152.273C96.2378 152.826 95.7971 153.234 95.0907 153.52C92.9303 154.403 87.4408 150.283 85.9329 147.641L85.7579 147.335C84.6799 145.459 82.6729 141.968 83.3664 139.606C83.6018 138.801 84.1419 138.193 85.0126 137.744C87.7606 136.332 92.7618 137.109 97.8257 143.947C100.559 147.637 101.544 151.533 100.461 154.37C99.8089 156.082 98.4414 157.228 96.6094 157.599C92.5825 158.414 84.7879 153.978 81.7353 145.17C81.5949 144.764 81.152 144.55 80.748 144.691C80.344 144.832 80.1301 145.276 80.2705 145.682C83.645 155.416 92.239 160.072 96.914 159.124C97.2554 159.054 97.5859 158.963 97.9013 158.852V158.855Z" fill="white"/>
<path d="M126.552 115.321C123.05 111.206 118.619 108.807 114.981 108.679L111.328 112.004C111.466 111.965 111.626 111.885 111.821 111.74C114.653 109.614 121.201 112.458 124.964 116.881C129.207 121.869 130.698 127.704 127.946 131.338L131.208 128.316C131.869 124.635 130.21 119.621 126.55 115.319L126.552 115.321Z" fill="#90A3AF"/>
<path d="M127.2 114.671C122.072 108.644 114.953 106.292 111.242 109.377L110.671 109.974L110.17 111.015L110.339 111.501C111.326 110.681 111.369 111.913 112.467 111.089C115.299 108.963 121.847 111.807 125.61 116.23C129.974 121.359 131.428 127.385 128.35 130.993C128.067 131.325 128.881 131.961 128.607 132.293C128.607 132.293 128.838 132.327 128.896 132.284C129.512 131.811 130.508 130.713 130.508 130.713C133.375 127.253 132.022 120.339 127.198 114.671H127.2Z" fill="#AA160B"/>
<path d="M134.103 108.486C128.974 102.459 121.856 100.107 118.146 103.192L118.12 103.164L111.371 109.275C115.135 106.449 122.134 108.807 127.166 114.72C131.99 120.391 133.342 127.303 130.475 130.763L137.412 124.53C140.279 121.07 138.927 114.156 134.103 108.488V108.486Z" fill="#D11F11"/>
<g style="mix-blend-mode:multiply" opacity="0.5">
<path d="M134.103 108.486C134.07 108.447 134.036 108.41 134.003 108.373C132.515 108.418 130.843 108.501 130.754 108.65C130.637 108.846 127.304 111.479 125.504 112.965C126.075 113.51 126.632 114.093 127.164 114.72C130.067 118.133 131.711 121.992 131.936 125.281L138.86 118.855C138.583 115.61 136.948 111.833 134.1 108.488L134.103 108.486Z" fill="#B71D0D"/>
</g>
<path d="M142.688 110L142.448 111.469L126.079 112.206L125.584 110.764L142.688 110Z" fill="#E08B0E"/>
<path d="M139.091 105.101L142.688 110L125.584 110.764L130.22 105.34L139.091 105.101Z" fill="#FFD140"/>
<path d="M126.407 119.756L126.904 121.196L118.09 116.172L117.593 114.729L126.407 119.756Z" fill="#E08B0E"/>
<path d="M136.673 117.035L137.168 118.478L126.904 121.196L126.407 119.756L136.673 117.035Z" fill="#E08B0E"/>
<path d="M125.442 110.928L136.673 117.035L126.407 119.756L117.593 114.729L125.442 110.928Z" fill="#FFD140"/>
<path d="M128.22 117.959L128.71 116.732L130.538 116.519L130.644 115.337L132.497 114.877L132.465 114.747L125.442 110.928L117.593 114.729L125.15 119.038L125.647 119.133L126.496 117.914L128.22 117.959Z" fill="#E58E0E"/>
<path d="M128.656 98.9078L129.648 101.791L129.92 102.88L128.931 99.9947L128.656 98.9078Z" fill="#BF2105"/>
<path d="M110.393 107.115L111.382 110L110.725 109.058L109.736 106.173L110.393 107.115Z" fill="#B71D0D"/>
<path d="M130.782 99.5304L131.774 102.416L131.657 103.598L130.666 100.713L130.782 99.5304Z" fill="#B71D0D"/>
<path d="M109.732 108.753L110.723 111.638L109.721 110.883L108.731 107.998L109.732 108.753Z" fill="#B71D0D"/>
<path d="M132.495 100.496L133.485 103.381L132.99 104.609L131.998 101.724L132.495 100.496Z" fill="#B71D0D"/>
<path d="M109.585 110.332L110.576 113.217L109.271 112.681L108.28 109.796L109.585 110.332Z" fill="#B71D0D"/>
<path d="M133.727 101.763L134.718 104.648L133.859 105.865L132.869 102.982L133.727 101.763Z" fill="#B71D0D"/>
<path d="M109.954 111.783L110.943 114.668L109.394 114.373L108.405 111.488L109.954 111.783Z" fill="#B71D0D"/>
<path d="M134.42 103.277L135.41 106.16L134.228 107.316L133.236 104.431L134.42 103.277Z" fill="#B71D0D"/>
<path d="M110.825 113.039L111.814 115.924L110.088 115.888L109.096 113.002L110.825 113.039Z" fill="#B71D0D"/>
<path d="M134.541 104.967L135.533 107.852L134.081 108.896L133.089 106.013L134.541 104.967Z" fill="#B71D0D"/>
<path d="M112.155 114.052L113.147 116.935L111.317 117.152L110.326 114.269L112.155 114.052Z" fill="#B71D0D"/>
<path d="M134.092 106.765L135.081 109.651L133.422 110.534L132.431 107.648L134.092 106.765Z" fill="#B71D0D"/>
<path d="M113.895 114.77L114.884 117.656L113.035 118.118L112.043 115.232L113.895 114.77Z" fill="#B71D0D"/>
<path d="M133.087 108.59L134.079 111.475L132.284 112.161L131.292 109.275L133.087 108.59Z" fill="#D31C04"/>
<path d="M115.96 115.167L116.949 118.05L115.156 118.743L114.165 115.857L115.96 115.167Z" fill="#D31C04"/>
<path d="M131.292 109.275L132.284 112.161L132.564 113.245L131.573 110.36L131.292 109.275Z" fill="#B71D0D"/>
<path d="M131.573 110.36L132.564 113.245L130.711 113.705L129.719 110.82L131.573 110.36Z" fill="#D31C04"/>
<path d="M118.263 115.222L119.252 118.107L117.6 118.992L116.608 116.109L118.263 115.222Z" fill="#D31C04"/>
<path d="M116.608 116.109L117.6 118.992L116.949 118.05L115.96 115.167L116.608 116.109Z" fill="#B71D0D"/>
<path d="M129.613 112.002L130.605 114.888L128.777 115.1L127.786 112.215L129.613 112.002Z" fill="#B71D0D"/>
<path d="M129.719 110.82L130.711 113.705L130.605 114.888L129.613 112.002L129.719 110.82Z" fill="#D31C04"/>
<path d="M120.704 114.933L121.696 117.818L120.248 118.864L119.257 115.981L120.704 114.933Z" fill="#D31C04"/>
<path d="M119.257 115.981L120.248 118.864L119.252 118.107L118.263 115.222L119.257 115.981Z" fill="#B71D0D"/>
<path d="M127.295 113.443L128.287 116.328L126.561 116.283L125.571 113.397L127.295 113.443Z" fill="#B71D0D"/>
<path d="M127.786 112.215L128.777 115.1L128.287 116.328L127.295 113.443L127.786 112.215Z" fill="#D31C04"/>
<path d="M123.175 114.319L124.165 117.202L122.994 118.361L122.002 115.475L123.175 114.319Z" fill="#D31C04"/>
<path d="M122.002 115.475L122.994 118.361L121.696 117.818L120.704 114.933L122.002 115.475Z" fill="#B71D0D"/>
<path d="M124.722 114.619L125.714 117.502L124.165 117.202L123.175 114.319L124.722 114.619Z" fill="#B71D0D"/>
<path d="M131.29 109.273L131.573 110.358L129.719 110.818L129.613 112L127.786 112.213L127.295 113.441L125.571 113.395L124.724 114.614L123.178 114.315L122.005 115.473L120.706 114.931L119.259 115.979L118.265 115.219L116.612 116.105L115.962 115.163L114.167 115.855L113.897 114.768L112.047 115.23L112.16 114.048L110.33 114.265L110.827 113.035L109.099 112.998L109.954 111.779L108.405 111.484L109.585 110.328L108.28 109.792L109.732 108.748L108.731 107.993L110.393 107.108L109.736 106.167L111.533 105.481L111.25 104.396L113.104 103.936L113.208 102.756L115.035 102.544L115.526 101.316L117.25 101.361L118.101 100.142L119.645 100.442L120.821 99.2831L122.119 99.8233L123.564 98.7798L124.56 99.5391L126.217 98.6519L126.865 99.5955L128.656 98.9035L128.929 99.9925L130.78 99.5283L130.666 100.713L132.493 100.496L131.998 101.724L133.727 101.765L132.867 102.982L134.418 103.277L133.234 104.433L134.539 104.969L133.087 106.013L134.09 106.768L132.431 107.648L133.087 108.59L131.29 109.275V109.273Z" fill="#FF3912"/>
<path d="M125.571 113.397L126.561 116.283L125.714 117.502L124.722 114.619L125.571 113.397Z" fill="#D31C04"/>
<path d="M67.6302 92.942C67.6302 94.9661 65.9948 96.6083 63.9792 96.6083C61.9636 96.6083 60.3282 94.9661 60.3282 92.942C60.3282 90.918 61.9636 89.2758 63.9792 89.2758C65.9948 89.2758 67.6302 90.9158 67.6302 92.942Z" fill="#FABB12"/>
<path d="M65.3078 89.5317C65.9408 90.1912 66.334 91.0872 66.334 92.0764C66.334 94.1005 64.6986 95.7427 62.683 95.7427C62.2142 95.7427 61.767 95.6516 61.3544 95.4889C61.471 95.6104 61.5963 95.7253 61.7303 95.8295C62.3503 96.3176 63.1302 97.335 63.9792 97.335C66.0704 97.335 65.3143 96.4195 65.863 96.0855C66.9216 95.4433 67.6281 94.2762 67.6281 92.9442C67.6281 91.3909 66.6645 90.0676 65.3057 89.5317H65.3078Z" fill="#D8810E"/>
<path d="M126.587 101.325C130.918 102.155 132.111 105.54 129.255 108.88C126.394 112.226 120.566 114.263 116.236 113.432C111.905 112.601 110.712 109.217 113.57 105.874C116.429 102.531 122.257 100.494 126.589 101.325H126.587Z" fill="#D31C04"/>
<path d="M125.904 102.123C122.143 101.403 117.081 103.171 114.601 106.073C112.117 108.978 113.156 111.915 116.917 112.636C120.678 113.356 125.74 111.588 128.222 108.685C130.704 105.783 129.665 102.845 125.904 102.125V102.123Z" fill="#FCCC0C"/>
<path opacity="0.6" d="M96.2897 96.3761V92.2673L158.126 64.9352V69.044L96.2897 96.3761Z" fill="#5CC8D3"/>
</g>
</g>
<defs>
<filter id="filter0_d_495_58" x="18.1394" y="14.5079" width="158.259" height="157.636" filterUnits="userSpaceOnUse" color-interpolation-filters="sRGB">
<feFlood flood-opacity="0" result="BackgroundImageFix"/>
<feColorMatrix in="SourceAlpha" type="matrix" values="0 0 0 0 0 0 0 0 0 0 0 0 0 0 0 0 0 0 127 0" result="hardAlpha"/>
<feOffset dy="2"/>
<feGaussianBlur stdDeviation="2"/>
<feComposite in2="hardAlpha" operator="out"/>
<feColorMatrix type="matrix" values="0 0 0 0 0 0 0 0 0 0 0 0 0 0 0 0 0 0 0.25 0"/>
<feBlend mode="normal" in2="BackgroundImageFix" result="effect1_dropShadow_495_58"/>
<feBlend mode="normal" in="SourceGraphic" in2="effect1_dropShadow_495_58" result="shape"/>
</filter>
<linearGradient id="paint0_linear_495_58" x1="62.9185" y1="98.333" x2="65.0378" y2="98.333" gradientUnits="userSpaceOnUse">
<stop stop-color="#FFF200"/>
<stop offset="1" stop-color="#F7941E"/>
</linearGradient>
<linearGradient id="paint1_linear_495_58" x1="45.9565" y1="107.22" x2="77.5521" y2="110.73" gradientUnits="userSpaceOnUse">
<stop stop-color="#FFF200"/>
<stop offset="0.46" stop-color="#FABF10"/>
<stop offset="0.81" stop-color="#F89F1A"/>
<stop offset="1" stop-color="#F7941E"/>
</linearGradient>
<clipPath id="clip0_495_58">
<path d="M35 37H164V110C164 137.614 141.614 160 114 160H85C57.3858 160 35 137.614 35 110V37Z" fill="white"/>
</clipPath>
</defs>
</svg>
