<svg width="195" height="194" viewBox="0 0 195 194" fill="none" xmlns="http://www.w3.org/2000/svg">
<g filter="url(#filter0_d_495_338)">
<path d="M153.039 142.403C178.296 111.727 173.798 66.4735 142.999 41.3249C112.2 16.1763 66.7567 20.6509 41.4993 51.3265C16.2419 82.002 20.7401 127.256 51.5391 152.405C82.3381 177.553 127.781 173.079 153.039 142.403Z" fill="#37C6FF" stroke="white" stroke-width="6"/>
<path d="M58.2465 148.866C57.5703 148.765 56.894 148.567 56.2421 148.263C52.618 146.578 51.0469 142.276 52.7314 138.658L61.6924 119.434C63.381 115.816 67.6853 114.243 71.3135 115.929C74.9375 117.615 76.5087 121.917 74.8242 125.535L65.8631 144.758C64.4783 147.726 61.332 149.319 58.2465 148.862V148.866Z" fill="#F9AF88"/>
<path d="M135.818 149.872C133.243 149.872 130.753 148.498 129.445 146.08L119.338 127.435C117.435 123.922 118.742 119.535 122.261 117.635C125.78 115.735 130.174 117.041 132.077 120.554L142.184 139.199C144.087 142.713 142.779 147.099 139.26 148.999C138.163 149.589 136.984 149.872 135.818 149.872Z" fill="#F9AF88"/>
<path d="M124.335 134.363C131.828 134.78 140 127.278 140 127.278C140 127.278 135.007 107.061 119.796 105.603C109.433 104.688 100.3 105.057 98.2172 105.164C96.0505 105.061 86.5675 104.692 76.2042 105.603C60.9928 107.061 56.0001 127.278 56.0001 127.278C56.0001 127.278 64.1726 134.78 71.6657 134.363L69.3945 159.791C69.3945 159.791 81.6552 165.902 98.0001 165.998C98.0765 166.002 98.1529 165.998 98.2252 165.998C98.3016 165.998 98.378 165.998 98.4544 165.998C114.791 165.899 126.606 159.787 126.606 159.787L124.335 134.36V134.363Z" fill="#FE8057"/>
<path d="M86.729 106.235C83.7852 106.748 83.7973 109.081 83.7973 109.081C83.7973 114.106 87.879 118.181 92.9122 118.181H99.0509C104.862 118.181 109.632 114.086 109.632 108.284C109.632 108.284 109.866 105.717 106.781 105.717C102.857 105.717 95.4187 104.714 86.7249 106.231L86.729 106.235Z" fill="#2DA09A"/>
<path d="M55.1974 129.885C55.4849 129.485 56.0396 129.367 56.4608 129.63C58.3882 130.819 64.5026 134.17 71.0502 134.304C71.5564 134.316 71.9694 134.708 71.9775 135.209L72.014 136.948C72.0261 137.477 71.5969 137.926 71.0664 137.914C63.4498 137.789 56.8171 134.021 54.5616 132.763C53.1606 131.983 55.1974 129.881 55.1974 129.881V129.885Z" fill="#2DA09A"/>
<path d="M140.864 129.885C140.576 129.485 140.021 129.367 139.6 129.63C137.673 130.819 131.558 134.17 125.011 134.304C124.505 134.316 124.091 134.708 124.083 135.209L124.047 136.948C124.035 137.477 124.464 137.926 124.994 137.914C132.611 137.789 139.244 134.021 141.499 132.763C142.9 131.983 140.864 129.881 140.864 129.881V129.885Z" fill="#2DA09A"/>
<path d="M73.8766 103.085C71.7791 103.085 69.6816 102.681 67.746 101.864C63.1299 99.9117 59.5827 95.6628 58.4854 90.7791L58.8377 90.7023C59.9107 95.4728 63.3769 99.6247 67.8878 101.533C72.3986 103.441 77.7963 103.045 81.9751 100.494L82.1655 100.801C79.6833 102.313 76.7799 103.089 73.8807 103.089L73.8766 103.085Z" fill="#A83246"/>
<path d="M57.4083 83.6678C54.8653 83.6678 52.2009 82.7946 50.0062 81.1289C47.0908 78.9175 44.8637 75.4044 43.5598 70.9735C41.0574 62.4513 42.5435 52.975 47.5321 45.6212C51.3384 40.0139 56.8049 36.6098 62.1581 36.5168V36.8767C56.9305 36.9656 51.5733 40.309 47.8318 45.8193C42.8998 53.0842 41.434 62.4472 43.9081 70.8684C44.7989 73.9085 46.6211 78.1049 50.2249 80.8379C53.5979 83.3929 58.1088 84.0317 61.4575 82.4267L61.6155 82.7541C60.3359 83.3686 58.8944 83.6678 57.4123 83.6678H57.4083Z" fill="#A83246"/>
<path d="M134.514 57.034C134.344 57.034 134.17 57.0178 133.996 56.9855L134.065 56.6297C135.292 56.8682 136.47 56.0799 137.094 55.1945C137.823 54.1555 138.061 52.8699 138.203 51.746C139.317 42.7994 134.96 33.5212 127.351 28.6577L127.546 28.3545C135.267 33.2907 139.693 42.7104 138.56 51.7905C138.414 52.9589 138.163 54.3011 137.389 55.4007C136.786 56.2578 135.701 57.034 134.514 57.034Z" fill="#A83246"/>
<path d="M114.13 96.3258C115.082 97.7488 116.823 98.3108 118.402 98.0844C119.981 97.858 121.419 96.9605 122.715 95.9296C129.319 90.674 133.073 81.2745 132.158 72.2793" stroke="#873B07" stroke-width="0.85" stroke-miterlimit="10"/>
<path d="M65.442 33.8567C65.442 33.8567 52.5006 37.4144 47.7589 49.0778C43.491 59.5809 41.9644 73.2779 50.808 77.6926C50.808 77.6926 56.1449 92.7601 59.9553 93.6737C63.7656 94.5874 66.0534 104.33 81.7565 102.806C97.4595 101.282 107.445 104.557 114.762 97.7084C114.762 97.7084 121.621 98.6221 128.1 86.9789C132.575 78.9418 133.437 70.8441 133.895 65.823C134.352 60.8019 134.198 55.7767 134.198 55.7767C134.198 55.7767 138.466 52.5788 137.551 46.1872C136.636 39.7956 132.826 32.6398 128.1 29.1388C128.1 29.1388 129.777 25.9409 121.848 20.3094C113.92 14.6778 106.299 17.2651 106.299 17.2651C106.299 17.2651 92.2724 3.71778 65.442 33.8567Z" fill="#A83246"/>
<path d="M96.9412 114.603H96.4472C91.5841 114.603 87.6401 113.067 87.6401 108.212V93.5605C87.6401 88.7051 91.5841 84.7675 96.4472 84.7675H96.9412C101.804 84.7675 105.748 88.7051 105.748 93.5605V108.212C105.748 113.067 101.804 114.603 96.9412 114.603Z" fill="#F9AF88"/>
<path opacity="0.2" d="M105.744 103.344V93.5645C105.744 88.7092 101.8 84.7715 96.9372 84.7715H96.4432C91.58 84.7715 87.636 88.7092 87.636 93.5645V104.812C91.5112 105.394 97.8887 105.648 105.74 103.348L105.744 103.344Z" fill="#993028"/>
<path d="M69.224 84.3308C69.4953 90.5041 64.7415 95.7274 58.5988 95.9983C52.4601 96.2691 47.2608 91.4865 46.9855 85.3132C46.7142 79.1399 51.468 73.9166 57.6107 73.6457C63.7494 73.3749 68.9527 78.1575 69.224 84.3308Z" fill="#F9AF88"/>
<path opacity="0.2" d="M67.7055 87.9733C67.8837 92.004 64.1422 95.4403 59.3479 95.6546C54.5535 95.8648 50.5205 92.7721 50.3423 88.7414C50.1642 84.7108 53.9057 81.2744 58.7 81.0602C63.4943 80.8499 67.5274 83.9427 67.7055 87.9733Z" fill="#993028"/>
<path opacity="0.2" d="M67.7055 87.9733C67.8837 92.004 64.1422 95.4403 59.3479 95.6546C54.5535 95.8648 50.5205 92.7721 50.3423 88.7414C50.1642 84.7108 53.9057 81.2744 58.7 81.0602C63.4943 80.8499 67.5274 83.9427 67.7055 87.9733Z" fill="#993028"/>
<path opacity="0.5" d="M48.9129 86.8979C49.4393 86.1702 50.0184 85.5315 50.6703 84.9412C51.302 84.3389 52.0025 83.8093 52.7354 83.3201C54.1972 82.3458 55.8574 81.6585 57.5905 81.2906C58.4489 81.0683 59.3438 81.04 60.2266 80.9955L61.5507 81.0804C61.9961 81.0804 62.4172 81.234 62.8545 81.3027C63.7332 81.4321 64.5431 81.7798 65.3651 82.0749C65.7862 82.2002 66.1506 82.4549 66.5434 82.6409L67.6974 83.2473C67.8756 83.3403 67.9404 83.5586 67.8473 83.7324C67.7582 83.9022 67.5476 83.971 67.3775 83.8901L67.3371 83.8699L66.2033 83.3443C65.8186 83.1826 65.4663 82.9562 65.0614 82.8592C64.2677 82.6247 63.4984 82.3134 62.6804 82.2164C61.0728 81.8849 59.4046 81.9455 57.8172 82.2932C56.2218 82.6368 54.7074 83.3201 53.3104 84.1852C51.9337 85.0706 50.6177 86.1339 49.5001 87.3265L49.4839 87.3467C49.3462 87.4922 49.1194 87.5003 48.9737 87.3629C48.84 87.2375 48.8238 87.0314 48.9291 86.8858L48.9129 86.8979Z" fill="#993028"/>
<path opacity="0.5" d="M56.9224 88.7617C57.6715 87.5933 58.6797 86.6514 59.8216 85.8833C60.9676 85.1232 62.2755 84.5896 63.632 84.3066C64.3082 84.1368 65.0087 84.1125 65.7012 84.0883C66.3936 84.1368 67.086 84.1651 67.7541 84.351C68.4385 84.4562 69.0701 84.7391 69.7059 84.9817C70.3335 85.2445 70.9085 85.6124 71.4997 85.9358C71.6333 86.0086 71.686 86.1784 71.6131 86.3158C71.5442 86.4412 71.3944 86.4937 71.2648 86.4412L71.2203 86.425C70.617 86.1865 70.046 85.8752 69.4386 85.6771C68.8191 85.5073 68.2238 85.2768 67.5922 85.2081C66.349 84.9655 65.0695 85.0343 63.8506 85.3011C62.6237 85.5679 61.4656 86.0975 60.3926 86.7686C59.3236 87.4397 58.3032 88.2402 57.3678 89.1054L57.3516 89.1215C57.2382 89.2266 57.06 89.2226 56.9548 89.1094C56.8657 89.0124 56.8576 88.8709 56.9224 88.7658V88.7617Z" fill="#993028"/>
<path d="M137.453 76.7764C142.963 74.0598 145.209 67.3669 142.469 61.8274C139.729 56.2878 133.041 53.9994 127.531 56.716C122.021 59.4326 119.775 66.1255 122.515 71.6651C125.254 77.2046 131.942 79.493 137.453 76.7764Z" fill="#F9AF88"/>
<path opacity="0.2" d="M125.606 74.1309C127.396 77.7491 132.336 78.9579 136.636 76.8355C140.94 74.713 142.973 70.0598 141.183 66.4415C139.394 62.8232 134.454 61.6144 130.153 63.7369C125.849 65.8593 123.816 70.5126 125.606 74.1309Z" fill="#993028"/>
<path opacity="0.5" d="M141.548 64.1412C140.734 63.7571 139.92 63.4741 139.066 63.272C138.219 63.0456 137.349 62.9202 136.474 62.8475C134.725 62.6979 132.935 62.896 131.243 63.4054C130.384 63.6237 129.586 64.032 128.793 64.4161L127.671 65.1276C127.282 65.3459 126.983 65.6815 126.639 65.9483C125.93 66.4819 125.387 67.1773 124.812 67.8363C124.505 68.1516 124.31 68.5478 124.055 68.8995L123.338 69.987C123.229 70.1528 123.274 70.3751 123.44 70.4843C123.602 70.5894 123.816 70.549 123.93 70.3953L123.958 70.359L124.695 69.3523C124.954 69.0289 125.152 68.6569 125.46 68.378C126.043 67.7918 126.566 67.1449 127.238 66.6679C128.485 65.6006 129.975 64.8527 131.534 64.3958C133.097 63.9269 134.753 63.7975 136.397 63.8824C138.033 63.9956 139.697 64.2907 141.252 64.8001L141.277 64.8082C141.467 64.8689 141.669 64.7678 141.734 64.5778C141.791 64.4039 141.706 64.2139 141.544 64.1371L141.548 64.1412Z" fill="#993028"/>
<path opacity="0.5" d="M135.433 69.6313C134.211 68.9683 132.874 68.6287 131.502 68.5074C130.129 68.3942 128.728 68.5559 127.404 68.9602C126.732 69.1381 126.104 69.4534 125.489 69.7647C124.905 70.1407 124.31 70.5005 123.816 70.9816C123.27 71.4061 122.852 71.9519 122.411 72.4734C121.99 73.007 121.662 73.6054 121.302 74.1713C121.221 74.3007 121.257 74.4746 121.387 74.5554C121.508 74.6322 121.662 74.6039 121.751 74.4988L121.783 74.4624C122.196 73.9611 122.545 73.4153 122.986 72.9504C123.444 72.5057 123.857 72.0125 124.379 71.6487C125.351 70.8361 126.501 70.2822 127.699 69.9305C128.902 69.5747 130.174 69.4817 131.437 69.5545C132.696 69.6273 133.98 69.8375 135.215 70.1447H135.239C135.389 70.1892 135.543 70.0962 135.579 69.9466C135.612 69.8213 135.551 69.6919 135.442 69.6313H135.433Z" fill="#993028"/>
<path d="M129.89 59.5324C131.975 79.6007 123.184 98.4644 98.5245 100.902C75.4275 103.186 60.5505 86.995 58.4692 66.9266C56.3838 46.8583 70.6817 28.9366 90.4057 26.891C110.13 24.8493 127.809 39.46 129.894 59.5283L129.89 59.5324Z" fill="#F9AF88"/>
<path d="M102.57 57.9921C101.456 57.9921 100.302 57.7415 99.2209 57.2402C97.3259 56.3629 95.609 54.7296 94.2565 52.5223C93.7706 51.7299 93.3495 50.8971 92.9689 50.0521C93.0134 50.3877 93.0418 50.7273 93.0458 51.0669C93.062 53.0033 92.1752 54.7579 90.7904 55.5341C89.4015 56.3103 87.6967 56.3589 85.988 55.6756C78.432 52.6395 73.1235 48.1277 70.6372 42.6296L70.9652 42.48C73.4109 47.8933 78.6547 52.3403 86.1216 55.3401C87.7251 55.9829 89.3205 55.9424 90.6122 55.2188C91.8877 54.5073 92.7016 52.878 92.6854 51.0709C92.6733 49.8702 92.3574 48.7059 91.9606 47.5779C91.7946 47.1373 91.6286 46.6926 91.4666 46.2559L91.8067 46.1306C91.9647 46.547 92.1307 46.9796 92.2886 47.4243C92.9243 49.1061 93.6249 50.796 94.5724 52.3363C95.8884 54.483 97.5486 56.0637 99.3829 56.9127C101.541 57.9113 103.995 57.8628 105.789 56.7793C107.757 55.5907 108.741 53.1044 108.032 51.1194L108.368 50.986C109.555 53.6259 111.774 55.7686 114.454 56.8682C115.572 57.3291 117.722 57.9517 119.536 56.9653C120.362 56.5165 120.998 55.6433 121.2 54.6892C121.362 53.9251 121.221 53.2095 120.803 52.6678L121.091 52.4454C121.573 53.0721 121.739 53.8928 121.557 54.762C121.334 55.8171 120.625 56.7833 119.71 57.2806C117.767 58.3358 115.499 57.6849 114.321 57.2038C111.944 56.2295 109.923 54.4628 108.623 52.2554C108.708 54.0989 107.692 56.0556 105.983 57.0866C104.991 57.6849 103.809 57.9881 102.586 57.9881L102.57 57.9921Z" fill="#A83246"/>
<path opacity="0.4" d="M95.5078 87.2134C95.6859 91.2643 90.5434 94.7815 84.02 95.0685C77.4967 95.3555 72.0625 92.3032 71.8844 88.2524C71.7062 84.2015 76.8488 80.6843 83.3721 80.3973C89.8955 80.1102 95.3296 83.1585 95.5078 87.2134Z" fill="url(#paint0_radial_495_338)"/>
<path opacity="0.4" d="M127.29 75.3559C128.667 79.1723 124.808 84.056 118.665 86.2714C112.523 88.4828 106.425 87.1851 105.048 83.3687C103.671 79.5523 107.53 74.6687 113.673 72.4532C119.815 70.2418 125.914 71.5395 127.29 75.3559Z" fill="url(#paint1_radial_495_338)"/>
<path d="M88.8427 75.0284C88.8427 79.4835 85.2591 83.0937 80.8373 83.0937C76.4155 83.0937 72.8319 79.4835 72.8319 75.0284C72.8319 70.5732 76.4155 66.963 80.8373 66.963C85.2591 66.963 88.8427 70.5732 88.8427 75.0284Z" fill="black" stroke="black" stroke-width="1.39" stroke-miterlimit="10"/>
<path d="M81.0681 83.6839C85.4625 83.6839 89.0249 80.0947 89.0249 75.6671C89.0249 71.2395 85.4625 67.6503 81.0681 67.6503C76.6737 67.6503 73.1113 71.2395 73.1113 75.6671C73.1113 80.0947 76.6737 83.6839 81.0681 83.6839Z" fill="white"/>
<path d="M80.6834 78.0645C83.537 78.0645 85.8503 75.7332 85.8503 72.8574C85.8503 69.9816 83.537 67.6503 80.6834 67.6503C77.8298 67.6503 75.5166 69.9816 75.5166 72.8574C75.5166 75.7332 77.8298 78.0645 80.6834 78.0645Z" fill="black"/>
<path d="M77.8894 72.6673C77.8894 73.3627 77.0553 73.9246 76.0227 73.9246C74.9902 73.9246 74.156 73.3627 74.156 72.6673C74.156 71.972 74.9942 71.41 76.0227 71.41C77.0512 71.41 77.8894 71.972 77.8894 72.6673Z" fill="white"/>
<path d="M105.19 69.5585C106.858 73.6902 111.535 75.6995 115.637 74.05C119.734 72.4006 121.706 67.7109 120.038 63.5792C118.37 59.4475 113.693 57.4382 109.591 59.0877C105.493 60.7371 103.521 65.4268 105.19 69.5585Z" fill="black" stroke="black" stroke-width="1.39" stroke-miterlimit="10"/>
<path d="M105.262 70.2174C106.923 74.3249 111.571 76.322 115.645 74.6807C119.718 73.0393 121.678 68.382 120.018 64.2745C118.358 60.1671 113.709 58.1699 109.636 59.8113C105.562 61.4527 103.602 66.114 105.262 70.2174Z" fill="white"/>
<path d="M107.72 66.2394C108.797 68.9077 111.818 70.2054 114.462 69.1381C117.111 68.0708 118.382 65.0468 117.301 62.3786C116.224 59.7103 113.203 58.4126 110.559 59.4799C107.911 60.5472 106.639 63.5712 107.72 66.2394Z" fill="black"/>
<path d="M105.991 65.2731C106.25 65.9159 107.238 66.1262 108.194 65.7421C109.15 65.358 109.717 64.5212 109.457 63.8784C109.198 63.2356 108.21 63.0253 107.255 63.4094C106.299 63.7935 105.732 64.6303 105.991 65.2731Z" fill="white"/>
<path d="M93.6451 81.7435C94.1715 82.3418 94.7829 82.8876 95.4227 83.3525C96.0706 83.8134 96.7711 84.1934 97.5202 84.4481C98.2653 84.6988 99.0509 84.8484 99.8486 84.8362C100.249 84.8645 100.642 84.7837 101.047 84.7554C101.448 84.7109 101.837 84.5896 102.242 84.5249H102.27C102.367 84.5047 102.46 84.5694 102.477 84.6664C102.493 84.7554 102.44 84.8362 102.359 84.8645C101.958 85.002 101.561 85.1596 101.144 85.2567C100.723 85.3416 100.302 85.4386 99.8688 85.4426C99.0063 85.5195 98.1236 85.3901 97.2975 85.1233C96.4674 84.8564 95.6859 84.44 95.0178 83.8902C94.3497 83.3404 93.7747 82.6976 93.3455 81.9376C93.2969 81.8486 93.3293 81.7395 93.4143 81.6909C93.4912 81.6465 93.5844 81.6667 93.6411 81.7314L93.6532 81.7435H93.6451Z" fill="#993028"/>
<path d="M95.1433 85.0545C95.4511 85.3335 95.7791 85.5842 96.1233 85.8025C96.4755 86.0127 96.84 86.1987 97.2328 86.328C98.0102 86.5868 98.8525 86.6717 99.6704 86.5342C99.7311 86.5221 99.7878 86.5665 99.8 86.6272C99.8081 86.6838 99.7716 86.7404 99.719 86.7525C98.8727 86.9668 97.9616 86.9304 97.1275 86.6595C96.7104 86.5221 96.3014 86.3482 95.937 86.0976C95.5685 85.8591 95.2405 85.5559 94.9814 85.2041C94.9449 85.1556 94.9571 85.0829 95.0057 85.0465C95.0502 85.0141 95.1109 85.0182 95.1474 85.0545H95.1433Z" fill="#993028"/>
<path d="M69.0135 58.2548C70.2525 52.0573 70.5603 49.1869 71.3094 42.9125C73.3786 47.4283 81.9306 53.9937 85.3036 54.2889C87.2513 54.4587 89.3772 54.677 90.839 53.3873C92.3048 52.0977 92.6733 49.575 91.3128 48.1762C92.6652 50.2542 94.0339 52.3564 95.8398 54.0584C97.6458 55.7604 99.962 57.0461 102.444 57.139C105.04 57.2361 107.647 55.9343 109.125 53.8037C110.603 51.6732 110.911 48.7786 109.907 46.3852C111.705 49.1505 113.523 51.9441 115.92 54.204C118.317 56.4679 121.387 58.1861 124.687 58.3317C127.983 58.4772 131.465 56.7873 132.826 53.7835C134.239 50.6746 133.194 47.0483 132.016 43.8423C129.242 36.2742 125.529 28.6091 118.973 23.9074C114.507 20.7055 108.992 19.1328 103.497 18.8943C98.0021 18.6558 92.5113 19.6948 87.2675 21.3402C76.294 24.7847 65.8915 31.2288 59.7528 40.9396C56.0032 46.8704 54.1162 54.0584 54.6467 61.0646C54.9099 64.5494 55.7764 68.0586 57.3719 71.1796C59.4694 75.283 62.4294 71.7982 64.3771 69.2148C66.7823 66.021 68.2279 62.1561 69.0054 58.2629L69.0135 58.2548Z" fill="#A83246"/>
<g opacity="0.4">
<path d="M68.0902 93.4109C68.4182 94.3853 68.8961 95.2949 69.5115 96.0954C70.1189 96.908 70.8761 97.5952 71.7184 98.1451C73.4231 99.2285 75.5247 99.6692 77.5615 99.3862C77.6303 99.3781 77.6951 99.4226 77.7032 99.4913C77.7113 99.556 77.6708 99.6166 77.606 99.6328C75.5368 100.122 73.2612 99.7339 71.4349 98.5898C70.5158 98.0278 69.7302 97.2597 69.1066 96.3905C68.4911 95.5132 68.0457 94.5146 67.8432 93.4716C67.8311 93.4029 67.8756 93.3382 67.9445 93.3261C68.0052 93.3139 68.07 93.3503 68.0862 93.4109H68.0902Z" fill="#A05320"/>
</g>
<path d="M65.2274 38.328C62.9153 36.4683 60.9797 34.1397 59.5746 31.528C59.3276 31.0712 59.0928 30.578 59.0968 30.0605C59.1009 29.539 59.4248 28.9851 59.935 28.8881C60.6517 28.7506 61.2024 29.4905 61.5507 30.1292C62.7978 32.4094 64.041 34.6854 65.2881 36.9656C64.3042 33.7354 63.8588 30.3394 63.9762 26.9637C63.9924 26.4543 64.0288 25.9328 64.2394 25.4719C64.454 25.0111 64.8873 24.6149 65.3975 24.5906C65.9158 24.5664 66.3936 24.9342 66.6446 25.387C66.8957 25.8398 66.9686 26.3694 67.0212 26.8869C67.4059 30.4971 67.252 34.168 66.5677 37.7337" fill="#A83246"/>
<path d="M67.0415 67.2662C67.0415 67.2662 71.9208 53.8725 76.8002 55.243C81.6795 56.6135 74.2087 65.8997 72.9898 67.1166C71.771 68.3335 66.2802 72.445 67.0455 67.2702L67.0415 67.2662Z" fill="#A83246"/>
<path d="M119.366 52.6436C119.366 52.6436 108.19 43.7777 104.748 47.493C101.31 51.2084 112.539 55.2188 114.219 55.619C115.896 56.0193 122.727 56.654 119.366 52.6436Z" fill="#A83246"/>
<path opacity="0.05" d="M130.447 71.475C133.647 63.5522 129.808 54.5398 121.872 51.3453C113.937 48.1507 104.91 51.9836 101.71 59.9064C98.5105 67.8292 102.35 76.8415 110.285 80.0361C118.221 83.2307 127.247 79.3977 130.447 71.475Z" fill="white"/>
<path d="M116.511 83.5788C106.87 83.5788 99.0306 75.748 99.0306 66.1262C99.0306 56.5043 106.874 48.6735 116.511 48.6735C126.149 48.6735 133.992 56.5043 133.992 66.1262C133.992 75.748 126.149 83.5788 116.511 83.5788ZM116.511 51.56C108.469 51.56 101.926 58.0931 101.926 66.1221C101.926 74.1511 108.469 80.6842 116.511 80.6842C124.553 80.6842 131.097 74.1511 131.097 66.1221C131.097 58.0931 124.553 51.56 116.511 51.56Z" fill="#26263A"/>
<path d="M97.1518 73.9611C99.4396 73.7347 102.068 69.51 103.784 73.3911C105.501 77.2722 100.011 80.1264 100.011 80.1264" fill="#F9AF88"/>
<path d="M93.637 62.0754C93.8273 63.2761 94.0258 64.4768 94.2606 65.6694C94.4833 66.862 94.7303 68.0546 95.03 69.223C95.3418 70.3873 95.6576 71.5678 96.1719 72.6108C96.2974 72.8736 96.4513 73.1081 96.6132 73.3143C96.7833 73.5164 96.9736 73.6256 97.0991 73.6135C97.5851 73.573 98.1236 73.29 98.6217 72.9868C99.1278 72.6755 99.6299 72.3279 100.177 72.0125C100.723 71.7133 101.339 71.3778 102.1 71.4263C102.477 71.4546 102.845 71.6204 103.116 71.8548C103.392 72.0893 103.59 72.3683 103.764 72.6472C104.088 73.2092 104.343 73.8277 104.396 74.4948C104.461 75.1578 104.339 75.8289 104.084 76.4232C103.829 77.0215 103.465 77.5552 103.048 78.0241C102.193 78.954 101.181 79.6938 100.071 80.2557C99.9984 80.2921 99.9093 80.2638 99.8729 80.1911C99.8364 80.1223 99.8607 80.0415 99.9255 80.001H99.9336C100.95 79.3704 101.914 78.6103 102.659 77.6926C103.408 76.7951 103.93 75.6712 103.772 74.5595C103.708 74.0097 103.481 73.48 103.193 72.9868C102.906 72.5057 102.513 72.1257 102.043 72.1055C101.57 72.0691 101.035 72.3238 100.533 72.6149C100.027 72.91 99.5328 73.2739 98.9942 73.5932C98.4516 73.9045 97.8847 74.2401 97.1437 74.3048C96.9048 74.3129 96.678 74.2401 96.508 74.1269C96.431 74.0703 96.3419 74.0137 96.2731 73.949L96.0868 73.7509C95.8722 73.48 95.6981 73.197 95.5604 72.906C95.0097 71.7497 94.6979 70.5571 94.4266 69.3564C93.8962 66.955 93.556 64.5334 93.3455 62.0956C93.3374 62.0147 93.3981 61.9419 93.4791 61.9379C93.556 61.9298 93.6249 61.9864 93.637 62.0592V62.0754Z" fill="#993028"/>
<path opacity="0.05" d="M82.0225 89.6447C89.9691 86.4778 93.8397 77.4789 90.6677 69.545C87.4957 61.6111 78.4823 57.7468 70.5358 60.9137C62.5892 64.0806 58.7186 73.0795 61.8906 81.0134C65.0625 88.9472 74.0759 92.8116 82.0225 89.6447Z" fill="white"/>
<path d="M76.7233 93.1683C67.082 93.1683 59.2426 85.3375 59.2426 75.7156C59.2426 66.0938 67.086 58.2629 76.7233 58.2629C86.3605 58.2629 94.2039 66.0938 94.2039 75.7156C94.2039 85.3375 86.3605 93.1683 76.7233 93.1683ZM76.7233 61.1495C68.6814 61.1495 62.1378 67.6826 62.1378 75.7116C62.1378 83.7405 68.6814 90.2737 76.7233 90.2737C84.7651 90.2737 91.3087 83.7405 91.3087 75.7116C91.3087 67.6826 84.7651 61.1495 76.7233 61.1495Z" fill="#26263A"/>
<path d="M92.6571 72.9666L91.1467 70.6946C91.337 70.5167 95.8965 66.3324 101.152 67.6787L100.638 70.5046C96.4958 69.4454 92.6976 72.9302 92.6571 72.9666Z" fill="#26263A"/>
<path d="M66.7054 32.7611L66.3693 32.6277C68.7948 26.6161 73.1478 21.3847 78.6264 17.9039C84.1051 14.419 90.6973 12.6968 97.1761 13.0445C100.468 13.2224 102.72 14.0026 104.262 15.4984C105.315 16.5213 105.939 18.0777 105.886 19.5614C105.846 20.7379 105.38 21.7567 104.578 22.4359L104.343 22.1609C105.068 21.5505 105.485 20.6206 105.522 19.5493C105.57 18.1626 104.987 16.7113 104.007 15.7572C102.533 14.326 100.355 13.5781 97.1558 13.4043C90.7499 13.0606 84.2346 14.7627 78.8208 18.2031C73.4069 21.6435 69.1025 26.8142 66.7054 32.7571V32.7611Z" fill="#A83246"/>
<path d="M96.3784 142.183L49.9455 131.166L51.9499 77.0698C51.9499 77.0698 79.6873 81.9454 97.1437 90.1887C97.091 90.2816 96.3784 142.187 96.3784 142.187V142.183Z" fill="#D0D0DF"/>
<path d="M96.3257 143.012L46.698 131.736L48.8401 77.6479C48.8401 77.6479 78.4847 82.6772 97.1437 91.0174C97.087 91.1104 96.3257 143.012 96.3257 143.012Z" fill="#E7E5F0"/>
<path d="M96.2569 143.792L46.6292 132.517L46.0744 78.3433C46.0744 78.3433 80.4891 84.5449 97.0708 91.8017C97.0141 91.8947 96.2528 143.796 96.2528 143.796L96.2569 143.792Z" fill="white"/>
<path d="M98.0386 142.195L144.816 131.785L142.795 77.66C142.795 77.66 114.851 82.1718 97.2652 90.1886C97.3178 90.2856 98.0386 142.195 98.0386 142.195Z" fill="#D0D0DF"/>
<path d="M98.0912 143.02L148.087 132.391L145.929 78.2786C145.929 78.2786 116.062 82.9197 97.2652 91.0174C97.3219 91.1144 98.0912 143.02 98.0912 143.02Z" fill="#E7E5F0"/>
<path d="M98.16 143.804L148.156 133.176L148.715 79.0104C148.715 79.0104 114.045 84.7633 97.338 91.8017C97.3947 91.8988 98.1641 143.804 98.1641 143.804H98.16Z" fill="white"/>
<path d="M91.6731 148.154L43.576 139.624C42.0292 139.349 40.7739 137.792 40.7739 136.147V84.1042C40.7739 82.4588 42.0292 81.347 43.576 81.6219L91.6731 90.1563C93.2199 90.4312 94.4752 91.9876 94.4752 93.633V145.672C94.4752 147.317 93.2199 148.429 91.6731 148.154Z" fill="#FFC558"/>
<path d="M91.6974 148.154L44.0214 139.696C42.4868 139.426 41.2477 137.881 41.2477 136.248V84.6661C41.2477 83.0329 42.4908 81.9332 44.0214 82.2041L91.6974 90.6616C93.2321 90.9324 94.4712 92.4768 94.4712 94.1101V145.692C94.4712 147.325 93.228 148.425 91.6974 148.154Z" fill="#FFE8AF"/>
<path d="M102.74 148.154L150.837 139.624C152.384 139.349 153.639 137.792 153.639 136.147V84.1042C153.639 82.4588 152.384 81.347 150.837 81.6219L102.74 90.1563C101.193 90.4312 99.9377 91.9876 99.9377 93.633V145.672C99.9377 147.317 101.193 148.429 102.74 148.154Z" fill="#FFC558"/>
<path d="M102.715 148.154L150.391 139.696C151.926 139.426 153.165 137.881 153.165 136.248V84.6661C153.165 83.0329 151.922 81.9332 150.391 82.2041L102.715 90.6616C101.181 90.9324 99.9417 92.4768 99.9417 94.1101V145.692C99.9417 147.325 101.185 148.425 102.715 148.154Z" fill="#FFE8AF"/>
<path d="M93.7463 90.6415H101.035C101.849 90.6415 102.513 91.3005 102.513 92.1171V147.208C102.513 148.021 101.853 148.684 101.035 148.684H93.7463C92.9324 148.684 92.2684 148.025 92.2684 147.208V92.1131C92.2684 91.3005 92.9284 90.6375 93.7463 90.6375V90.6415Z" fill="#FFC558"/>
<path d="M108.235 114.162L108.364 126.141L149.343 119.673V106.509L108.235 114.162Z" fill="#FFC558"/>
<path d="M113.924 128.445L114.013 132.432L143.427 127.867V123.481L113.924 128.445Z" fill="#FFC558"/>
<path d="M113.924 135.444L114.013 139.43L143.427 134.869V130.479L113.924 135.444Z" fill="#FFC558"/>
<path d="M37.6034 109.784C37.6034 109.784 36.012 118.181 38.0002 121.496C39.9924 124.815 47.5119 123.663 48.0869 121.969C48.6619 120.275 41.681 119.98 41.681 119.98C41.681 119.98 48.7348 120.368 48.832 118.44C48.9332 116.511 41.3327 116.386 41.3327 116.386C41.3327 116.386 48.3623 116.349 48.257 114.053C48.1557 111.757 40.6768 112.578 40.6768 112.578C40.6768 112.578 49.0425 112.052 48.338 110.431C47.6334 108.814 41.0938 109.594 41.0938 109.594C41.0938 109.594 43.1792 106.166 41.6121 105.867C40.0451 105.563 37.5953 109.784 37.5953 109.784H37.6034Z" fill="#F9AF88"/>
<path d="M157.397 109.784C157.397 109.784 158.988 118.181 157 121.496C155.008 124.815 147.488 123.663 146.913 121.969C146.338 120.275 153.319 119.98 153.319 119.98C153.319 119.98 146.265 120.368 146.168 118.44C146.067 116.511 153.667 116.386 153.667 116.386C153.667 116.386 146.638 116.349 146.743 114.053C146.844 111.757 154.323 112.578 154.323 112.578C154.323 112.578 145.958 112.052 146.662 110.431C147.367 108.814 153.906 109.594 153.906 109.594C153.906 109.594 151.821 106.166 153.388 105.867C154.955 105.563 157.405 109.784 157.405 109.784H157.397Z" fill="#F9AF88"/>
<path d="M49.4313 131.324L49.5163 135.65L76.4479 141.354V136.632L49.4313 131.324Z" fill="#FFC558"/>
<path d="M119.609 108.963L117.082 109.222C116.434 109.291 115.839 108.866 115.689 108.236L115.62 107.953C115.483 107.383 114.981 106.974 114.394 106.958L114.066 106.95C113.458 106.934 112.92 107.342 112.774 107.932L112.721 108.139C112.563 108.773 111.956 109.19 111.304 109.113L108.729 108.794C107.919 108.693 107.405 107.88 107.656 107.108L111.361 95.7839C111.531 95.2624 112.013 94.9066 112.559 94.8905L116.39 94.7934C116.989 94.7773 117.524 95.1775 117.677 95.7597L120.723 107.346C120.925 108.114 120.395 108.878 119.601 108.963H119.609ZM115.098 103.809L114.584 101.141C114.543 100.918 114.228 100.914 114.175 101.133L113.543 103.772L115.098 103.813V103.809Z" fill="#2DA09A"/>
<path d="M118.957 108.466L116.43 108.725C115.782 108.79 115.187 108.369 115.037 107.738L114.969 107.455C114.831 106.885 114.329 106.477 113.742 106.461L113.414 106.453C112.806 106.437 112.268 106.845 112.122 107.435L112.069 107.641C111.911 108.276 111.304 108.692 110.652 108.616L108.077 108.296C107.267 108.195 106.753 107.383 107.004 106.61L110.709 95.2866C110.879 94.7651 111.361 94.4093 111.907 94.3932L115.738 94.2961C116.337 94.28 116.872 94.6802 117.026 95.2624L120.071 106.849C120.273 107.617 119.743 108.381 118.949 108.466H118.957ZM114.446 103.312L113.932 100.643C113.891 100.421 113.576 100.417 113.523 100.635L112.891 103.275L114.446 103.316V103.312Z" fill="#37C6FF"/>
<g opacity="0.46">
<path d="M116.179 95.8284C116.398 96.2367 116.564 96.6612 116.71 97.0897C116.855 97.5182 116.981 97.9508 117.082 98.3875C117.188 98.8241 117.269 99.2688 117.329 99.7135C117.39 100.162 117.435 100.611 117.418 101.076C117.196 100.668 117.034 100.243 116.888 99.8146C116.742 99.386 116.617 98.9534 116.515 98.5168C116.41 98.0802 116.329 97.6355 116.268 97.1908C116.208 96.742 116.163 96.2933 116.179 95.8284Z" fill="white"/>
</g>
<path d="M135.296 101.088C135.409 101.613 135.413 102.082 135.304 102.503C135.195 102.923 135.004 103.303 134.741 103.635C134.478 103.97 134.154 104.266 133.769 104.524C133.385 104.783 132.976 105.009 132.542 105.203C132.109 105.398 131.664 105.559 131.214 105.693C130.761 105.822 130.34 105.931 129.939 106.02C129.546 106.105 129.137 106.178 128.712 106.242C128.287 106.307 127.857 106.348 127.424 106.368C126.991 106.388 126.562 106.384 126.132 106.356C125.796 106.331 125.472 106.291 125.161 106.226C124.995 106.194 124.869 106.061 124.833 105.895L122.277 94.2637C122.241 94.0899 122.31 93.908 122.46 93.8109C122.711 93.6492 122.978 93.4915 123.257 93.3379C123.63 93.1358 124.015 92.9498 124.411 92.78C124.808 92.6102 125.209 92.4606 125.61 92.3313C126.011 92.2019 126.404 92.0927 126.792 92.0119C127.242 91.9149 127.699 91.8421 128.173 91.8017C128.643 91.7572 129.105 91.7572 129.558 91.8017C130.012 91.8421 130.445 91.927 130.854 92.0604C131.267 92.1938 131.643 92.3838 131.988 92.6304C132.332 92.8811 132.623 93.1924 132.866 93.5684C133.109 93.9443 133.291 94.4012 133.409 94.9389C133.486 95.2946 133.506 95.6342 133.474 95.9657C133.441 96.2972 133.356 96.6045 133.219 96.8915C133.081 97.1786 132.899 97.4373 132.664 97.6718L132.656 97.6799C132.417 97.9144 132.498 98.3186 132.822 98.4116C132.899 98.4359 132.98 98.4601 133.057 98.4844C133.441 98.6178 133.781 98.8078 134.085 99.0544C134.389 99.301 134.644 99.5961 134.854 99.9398C135.065 100.283 135.215 100.667 135.308 101.092L135.296 101.088ZM129.303 96.7379C129.262 96.556 129.19 96.4064 129.088 96.2932C128.983 96.18 128.87 96.0951 128.74 96.0385C128.611 95.9819 128.477 95.9455 128.339 95.9374C128.202 95.9293 128.08 95.9374 127.983 95.9576C127.857 95.9859 127.736 96.0304 127.627 96.0951C127.602 96.1072 127.582 96.1234 127.558 96.1355C127.404 96.2285 127.327 96.4104 127.359 96.5883L127.618 97.9548C127.667 98.2135 127.93 98.3712 128.181 98.2863C128.202 98.2782 128.222 98.2742 128.242 98.2661C128.453 98.1933 128.647 98.0922 128.825 97.9669C129.007 97.8375 129.149 97.6758 129.25 97.4777C129.352 97.2796 129.372 97.0371 129.311 96.746L129.303 96.7379ZM128.631 100.118C128.586 100.126 128.546 100.138 128.501 100.15C128.278 100.211 128.137 100.429 128.185 100.655L128.546 102.458C128.643 102.458 128.74 102.454 128.837 102.45C128.93 102.45 129.024 102.434 129.113 102.414C129.246 102.386 129.388 102.341 129.538 102.277C129.688 102.212 129.825 102.123 129.947 102.01C130.068 101.892 130.157 101.755 130.218 101.589C130.279 101.423 130.283 101.221 130.23 100.983C130.178 100.744 130.088 100.558 129.963 100.425C129.837 100.292 129.7 100.199 129.55 100.142C129.4 100.085 129.242 100.061 129.076 100.065C128.91 100.069 128.764 100.089 128.631 100.118Z" fill="#1B40AF"/>
<path d="M134.676 100.393C134.79 100.918 134.794 101.387 134.684 101.808C134.575 102.228 134.385 102.608 134.122 102.94C133.858 103.275 133.534 103.57 133.15 103.829C132.765 104.088 132.356 104.314 131.923 104.508C131.49 104.702 131.044 104.864 130.595 104.997C130.141 105.127 129.72 105.236 129.319 105.325C128.926 105.41 128.517 105.482 128.092 105.547C127.667 105.612 127.238 105.652 126.805 105.672C126.371 105.693 125.942 105.689 125.513 105.66C125.177 105.636 124.853 105.596 124.541 105.531C124.375 105.499 124.249 105.365 124.213 105.199L121.658 93.5684C121.621 93.3946 121.69 93.2126 121.84 93.1156C122.091 92.9539 122.358 92.7962 122.638 92.6426C123.01 92.4405 123.395 92.2545 123.792 92.0847C124.189 91.9149 124.59 91.7653 124.99 91.636C125.391 91.5066 125.784 91.3974 126.173 91.3166C126.622 91.2196 127.08 91.1468 127.554 91.1064C128.023 91.0619 128.485 91.0619 128.939 91.1064C129.392 91.1468 129.825 91.2317 130.234 91.3651C130.647 91.4985 131.024 91.6885 131.368 91.9351C131.712 92.1858 132.004 92.4971 132.247 92.8731C132.49 93.249 132.672 93.7059 132.789 94.2436C132.866 94.5993 132.887 94.9389 132.854 95.2704C132.822 95.6019 132.737 95.9092 132.599 96.1962C132.461 96.4833 132.279 96.742 132.044 96.9765L132.036 96.9846C131.797 97.219 131.878 97.6233 132.202 97.7163C132.279 97.7406 132.36 97.7648 132.437 97.7891C132.822 97.9225 133.162 98.1125 133.466 98.3591C133.769 98.6057 134.024 98.9008 134.235 99.2445C134.446 99.5881 134.595 99.9722 134.688 100.397L134.676 100.393ZM128.683 96.0426C128.643 95.8607 128.57 95.7111 128.469 95.5979C128.364 95.4847 128.25 95.3998 128.121 95.3432C127.991 95.2866 127.857 95.2502 127.72 95.2421C127.582 95.234 127.461 95.2421 127.363 95.2623C127.238 95.2906 127.116 95.3351 127.007 95.3998C126.983 95.4119 126.962 95.4281 126.938 95.4402C126.784 95.5332 126.707 95.7151 126.74 95.893L126.999 97.2595C127.047 97.5182 127.311 97.6759 127.562 97.591C127.582 97.5829 127.602 97.5788 127.618 97.5708C127.829 97.498 128.023 97.3969 128.202 97.2716C128.384 97.1422 128.525 96.9805 128.627 96.7824C128.728 96.5843 128.748 96.3418 128.687 96.0507L128.683 96.0426ZM128.011 99.4224C127.967 99.4304 127.926 99.4426 127.882 99.4547C127.659 99.5153 127.517 99.7337 127.566 99.96L127.926 101.763C128.023 101.763 128.121 101.759 128.218 101.755C128.311 101.755 128.404 101.739 128.493 101.719C128.627 101.69 128.768 101.646 128.918 101.581C129.068 101.517 129.206 101.428 129.327 101.314C129.449 101.197 129.538 101.06 129.599 100.894C129.659 100.728 129.663 100.526 129.611 100.288C129.558 100.049 129.469 99.863 129.343 99.7296C129.218 99.5962 129.08 99.5032 128.93 99.4466C128.781 99.39 128.623 99.3658 128.457 99.3698C128.291 99.3738 128.145 99.3941 128.011 99.4224Z" fill="#5271FF"/>
<g opacity="0.46">
<path d="M129.137 91.9027C129.538 91.8946 129.927 91.9836 130.299 92.1291C130.672 92.2747 131.02 92.5011 131.315 92.7921C131.611 93.0832 131.83 93.4592 131.935 93.8554C132.06 94.2516 132.032 94.668 131.951 95.048C131.943 95.0803 131.911 95.1006 131.878 95.0925C131.854 95.0884 131.838 95.0682 131.834 95.048V95.0399C131.749 94.6639 131.692 94.3082 131.534 93.9928C131.388 93.6775 131.202 93.3864 130.951 93.1479C130.461 92.6587 129.809 92.3151 129.117 92.0159H129.113C129.08 91.9997 129.068 91.9634 129.08 91.9351C129.088 91.9108 129.113 91.8987 129.133 91.8987L129.137 91.9027Z" fill="white"/>
</g>
<path d="M147.444 91.5632L146.804 94.9309C146.759 95.1573 146.541 95.3109 146.314 95.2664C146.261 95.2543 146.209 95.2462 146.156 95.2381C145.966 95.2058 145.775 95.1896 145.585 95.1775C145.099 95.1492 144.629 95.1896 144.184 95.2907C143.734 95.3958 143.334 95.5696 142.981 95.8122C142.629 96.0548 142.342 96.3701 142.119 96.7542C141.896 97.1382 141.771 97.5951 141.742 98.1247C141.722 98.4683 141.762 98.7634 141.856 99.0222C141.949 99.2768 142.09 99.4911 142.281 99.669C142.471 99.8469 142.694 99.9803 142.961 100.073C143.224 100.166 143.52 100.223 143.844 100.243C144.087 100.255 144.342 100.243 144.609 100.207C144.876 100.17 145.14 100.114 145.399 100.045C145.658 99.9722 145.917 99.8914 146.164 99.7903H146.172C146.476 99.669 146.796 99.9116 146.747 100.235L146.233 103.853C146.213 103.999 146.115 104.128 145.978 104.185C145.779 104.262 145.569 104.334 145.346 104.395C145.042 104.48 144.731 104.553 144.411 104.609C144.091 104.666 143.771 104.706 143.455 104.731C143.139 104.751 142.836 104.755 142.544 104.739C141.71 104.694 140.936 104.496 140.232 104.144C139.527 103.797 138.92 103.336 138.418 102.77C137.916 102.204 137.531 101.545 137.268 100.793C137.005 100.045 136.895 99.2445 136.94 98.3996C137.001 97.2757 137.223 96.2245 137.6 95.2502C137.976 94.2719 138.499 93.4269 139.167 92.7154C139.835 91.9998 140.641 91.4541 141.588 91.07C142.536 90.69 143.613 90.5323 144.816 90.597C145.269 90.6213 145.735 90.6859 146.205 90.783C146.561 90.8557 146.893 90.9649 147.205 91.1064C147.383 91.1872 147.484 91.3773 147.448 91.5713L147.444 91.5632Z" fill="#F03A3A"/>
<path d="M147.01 90.9123L146.371 94.28C146.326 94.5064 146.107 94.66 145.881 94.6155C145.828 94.6034 145.775 94.5953 145.723 94.5872C145.532 94.5549 145.342 94.5387 145.152 94.5266C144.666 94.4983 144.196 94.5387 143.751 94.6398C143.301 94.7449 142.9 94.9187 142.548 95.1613C142.196 95.4039 141.908 95.7192 141.686 96.1033C141.463 96.4873 141.337 96.9442 141.309 97.4738C141.289 97.8174 141.329 98.1125 141.422 98.3713C141.515 98.626 141.657 98.8402 141.848 99.0181C142.034 99.192 142.261 99.3294 142.528 99.4224C142.791 99.5154 143.087 99.572 143.411 99.5922C143.654 99.6043 143.909 99.5922 144.176 99.5558C144.443 99.5194 144.706 99.4628 144.965 99.3941C145.225 99.3213 145.484 99.2405 145.731 99.1394H145.739C146.043 99.0181 146.362 99.2607 146.314 99.5841L145.8 103.202C145.779 103.348 145.682 103.477 145.545 103.534C145.346 103.611 145.136 103.683 144.913 103.744C144.609 103.829 144.297 103.902 143.977 103.958C143.658 104.015 143.338 104.055 143.022 104.08C142.706 104.1 142.402 104.104 142.111 104.088C141.277 104.043 140.503 103.845 139.799 103.493C139.094 103.146 138.487 102.685 137.985 102.119C137.482 101.553 137.098 100.894 136.835 100.142C136.571 99.3941 136.462 98.5936 136.507 97.7487C136.567 96.6248 136.79 95.5737 137.167 94.5994C137.543 93.621 138.066 92.7761 138.734 92.0645C139.402 91.349 140.208 90.8032 141.155 90.4191C142.103 90.0391 143.18 89.8814 144.382 89.9461C144.836 89.9704 145.302 90.0351 145.771 90.1321C146.128 90.2049 146.46 90.314 146.771 90.4555C146.95 90.5364 147.051 90.7264 147.014 90.9204L147.01 90.9123Z" fill="#F15252"/>
<g opacity="0.46">
<path d="M137.895 94.9753C138.082 93.8797 138.689 92.8649 139.544 92.1251C139.973 91.7572 140.459 91.45 140.993 91.264C141.515 91.0497 142.078 90.981 142.625 90.9648C142.657 90.9648 142.682 90.9891 142.686 91.0214C142.686 91.0497 142.67 91.07 142.645 91.078H142.641C142.123 91.2398 141.621 91.3974 141.155 91.64C140.685 91.8664 140.256 92.1575 139.867 92.4971C139.475 92.8326 139.126 93.2207 138.815 93.6412C138.511 94.0657 138.232 94.5225 138.005 95.0036C137.993 95.0359 137.956 95.0481 137.928 95.0359C137.904 95.0238 137.891 94.9995 137.895 94.9753Z" fill="white"/>
</g>
</g>
<defs>
<filter id="filter0_d_495_338" x="18.1394" y="11" width="158.259" height="166.683" filterUnits="userSpaceOnUse" color-interpolation-filters="sRGB">
<feFlood flood-opacity="0" result="BackgroundImageFix"/>
<feColorMatrix in="SourceAlpha" type="matrix" values="0 0 0 0 0 0 0 0 0 0 0 0 0 0 0 0 0 0 127 0" result="hardAlpha"/>
<feOffset dy="2"/>
<feGaussianBlur stdDeviation="2"/>
<feComposite in2="hardAlpha" operator="out"/>
<feColorMatrix type="matrix" values="0 0 0 0 0 0 0 0 0 0 0 0 0 0 0 0 0 0 0.25 0"/>
<feBlend mode="normal" in2="BackgroundImageFix" result="effect1_dropShadow_495_338"/>
<feBlend mode="normal" in="SourceGraphic" in2="effect1_dropShadow_495_338" result="shape"/>
</filter>
<radialGradient id="paint0_radial_495_338" cx="0" cy="0" r="1" gradientUnits="userSpaceOnUse" gradientTransform="translate(85.6149 87.7834) rotate(-0.658944) scale(10.929 8.07449)">
<stop offset="0.15" stop-color="#993028"/>
<stop offset="1" stop-color="#FCBCB1"/>
</radialGradient>
<radialGradient id="paint1_radial_495_338" cx="0" cy="0" r="1" gradientUnits="userSpaceOnUse" gradientTransform="translate(118.615 78.6782) rotate(-17.9431) scale(10.9273 8.07572)">
<stop offset="0.15" stop-color="#993028"/>
<stop offset="1" stop-color="#FCBCB1"/>
</radialGradient>
</defs>
</svg>
