<svg width="195" height="195" viewBox="0 0 195 195" fill="none" xmlns="http://www.w3.org/2000/svg">
<g filter="url(#filter0_d_495_634)">
<path d="M153.039 142.864C178.296 112.189 173.798 66.9348 142.999 41.7862C112.2 16.6376 66.7567 21.1122 41.4993 51.7878C16.2419 82.4634 20.7401 127.717 51.5391 152.866C82.3381 178.015 127.781 173.54 153.039 142.864Z" fill="#5271FF" stroke="white" stroke-width="6"/>
<path d="M102.786 166H129.178H133.371V156.116V152.774V152.183V149.879H128.723H124.161H113.463H105.943H105.913H101.936H101.503H97.4883V166H102.786Z" fill="#6F4659"/>
<path d="M93.5415 25.0488C89.1443 23.3185 84.5134 25.4539 81.8878 29.3576C80.0397 32.1008 79.6191 35.5529 79.6573 38.8531C79.6955 42.1533 79.9165 45.1581 78.952 48.3149C74.8267 61.8407 72.2649 57.9707 71.2027 67.5928C70.9861 69.7663 71.139 72.0874 72.3456 73.9105C73.5522 75.7337 76.0673 76.8267 77.9409 74.1215C78.3997 75.8982 79.0965 77.6581 80.2988 79.055C81.5012 80.4519 83.2685 81.4478 85.1166 81.4014C86.9648 81.355 88.8129 80.11 89.6668 77.9535C91.7401 80.7093 95.0624 82.4987 98.5165 82.7181C101.971 82.9376 105.497 81.5829 107.328 79.0381C111.143 81.0047 115.613 81.6926 119.844 80.9583C124.076 80.224 128.048 78.0759 131.179 74.8179C133.104 76.6874 136.409 76.392 138.631 74.8812C140.853 73.3703 142.242 70.9521 143.912 68.8463C145.174 69.9942 147.217 70.0068 148.696 69.1543C150.174 68.3018 151.134 66.7404 151.61 65.1071C152.086 63.4739 152.141 61.7563 152.672 59.6251C152.94 60.5577 154.138 61.0051 155.06 60.6843C155.982 60.3636 156.602 59.4689 156.849 58.532C157.095 57.5951 157.031 56.6076 156.607 55.5694C154.376 41.8453 145.165 39.4144 140.985 36.7008C136.073 33.5145 133.796 27.6273 130.007 23.1792C123.506 15.5617 111.989 12.6413 102.612 16.2369C98.0916 17.9714 93.7751 21.7106 93.5415 25.0488Z" fill="#A83246"/>
<mask id="mask0_495_634" style="mask-type:luminance" maskUnits="userSpaceOnUse" x="71" y="14" width="86" height="69">
<path d="M93.5415 25.0488C89.1443 23.3185 84.5134 25.454 81.8878 29.3577C80.0397 32.1008 79.6191 35.553 79.6573 38.8532C79.6955 42.1534 81.3737 46.1584 80.0397 49.1801C76.3435 57.5445 71.5554 58.6545 71.2027 67.5971C70.9861 69.7705 71.139 72.0917 72.3456 73.9148C73.5522 75.7379 76.0673 76.831 77.9409 74.1258C78.3997 75.9025 79.0965 77.6624 80.2988 79.0592C81.5012 80.4561 83.2685 81.4521 85.1166 81.4057C86.9648 81.3593 88.8129 80.1143 89.6668 77.9578C91.7401 80.7136 95.0624 82.503 98.5165 82.7224C101.971 82.9419 105.497 81.5872 107.328 79.0424C111.143 81.009 115.613 81.6969 119.844 80.9626C124.076 80.2282 128.048 78.0802 131.179 74.8221C133.104 76.6917 136.409 76.3963 138.631 74.8854C140.853 73.3746 142.242 70.9564 143.912 68.8505C145.174 69.9984 147.217 70.0111 148.696 69.1586C150.174 68.3061 151.134 66.7446 151.61 65.1114C152.086 63.4782 152.141 61.7605 152.672 59.6293C152.94 60.562 154.138 61.0093 155.06 60.6886C155.982 60.3679 156.602 59.4732 156.849 58.5363C157.095 57.5994 157.031 56.6119 156.607 55.5737C155.591 50.3491 154.3 44.6602 150.072 41.398C147.37 39.3132 143.848 38.562 140.985 36.7051C136.073 33.5188 133.796 27.6316 130.007 23.1835C123.506 15.566 111.989 12.6456 102.612 16.2412C98.0916 17.9715 93.7751 21.7106 93.5415 25.0488Z" fill="white"/>
</mask>
<g mask="url(#mask0_495_634)">
<path d="M97.807 43.1494C97.807 43.1494 81.7603 66.0567 86.5442 82.7477C86.5442 82.7477 127.258 92.0533 136.656 84.8114C146.053 77.5695 147.277 76.717 147.277 76.717C147.277 76.717 141.303 56.6878 129.131 48.7243C117.061 40.8325 97.807 43.1494 97.807 43.1494Z" fill="#701934"/>
<path d="M79.5978 48.9184C80.405 46.0656 79.5766 39.1275 80.2903 36.2535C82.3296 28.0283 91.1453 25.492 94.1363 26.1967C103.262 11.0166 125.605 21.0016 131.685 24.2132C127.428 19.533 118.327 13.0592 111.98 13.0001C105.633 12.941 99.3067 15.6335 94.969 20.2336C94.1575 21.0945 93.3885 22.0356 92.3476 22.5969C90.8309 23.4114 89.004 23.289 87.3174 23.6351C83.8081 24.3567 80.9998 27.1632 79.5171 30.4001C78.0344 33.637 77.6902 37.2748 77.6605 40.8367C77.618 44.3943 77.8687 47.9689 79.5978 48.9184Z" fill="#C95559"/>
</g>
<path d="M135.309 30.8179C135.309 30.8179 139.672 38.0978 146.274 41.0983C152.876 44.0989 160.069 57.9455 153.599 60.6422C153.599 60.6422 157.388 62.0939 158.365 56.2869C159.147 51.6531 155.298 43.5672 146.877 39.5158C141.55 36.9499 136.409 32.9744 135.309 30.8179Z" fill="#C95559"/>
<path d="M78.4422 49.7161C78.4422 49.7161 76.4284 56.0844 73.2378 59.7982C70.2595 63.2672 65.9091 72.4673 74.6185 75.6029C74.6185 75.6029 69.2144 70.9691 72.3456 65.4322C75.4725 59.891 78.4422 54.8268 78.4422 49.7161Z" fill="#C95559"/>
<path d="M107.234 74.3578L104.235 85.7186C104.235 85.7186 113.182 98.3878 126.756 83.8913L123.128 71.6569C123.128 71.6569 111.819 75.6112 107.234 74.3578Z" fill="#F18361"/>
<path d="M93.4735 55.7087C93.4735 55.7087 88.1288 48.3782 85.6477 56.1265C83.9993 61.2752 87.8569 70.1334 95.9886 64.0985C95.9886 64.0985 94.3062 63.3473 93.6562 59.6884C93.1038 56.5781 93.4735 55.7087 93.4735 55.7087Z" fill="#FBA07F"/>
<path d="M91.6848 68.1753C92.8252 68.1753 93.7496 67.257 93.7496 66.1243C93.7496 64.9915 92.8252 64.0732 91.6848 64.0732C90.5445 64.0732 89.6201 64.9915 89.6201 66.1243C89.6201 67.257 90.5445 68.1753 91.6848 68.1753Z" fill="#C0F0F0"/>
<path d="M131.651 51.4969C131.651 51.4969 138.741 44.2128 139.804 52.2776C140.432 57.0591 137.267 65.9216 129.136 59.8867C129.136 59.8867 130.818 59.1355 131.468 55.4766C132.02 52.3663 131.651 51.4969 131.651 51.4969Z" fill="#FBA07F"/>
<path d="M135.287 63.9677C136.428 63.9677 137.352 63.0494 137.352 61.9166C137.352 60.7839 136.428 59.8656 135.287 59.8656C134.147 59.8656 133.223 60.7839 133.223 61.9166C133.223 63.0494 134.147 63.9677 135.287 63.9677Z" fill="#C0F0F0"/>
<path d="M90.6269 42.5036C89.1655 53.4213 91.5489 75.6408 109.996 77.8058C119.351 78.903 125.949 74.5604 130.032 68.8969C134.115 63.2333 134.574 53.7336 133.669 46.8293C133.257 43.6937 133.69 44.2297 131.923 41.6005C129.531 38.0428 125.716 35.7048 121.922 33.6749C117.915 31.531 113.739 29.5855 109.274 28.7161C104.809 27.8468 99.9949 28.1295 95.9801 30.2565C91.9652 32.3835 91.4724 36.1817 90.6269 42.5036Z" fill="#F9AF88"/>
<path d="M89.892 49.3656C92.645 48.0489 95.415 45.9092 96.5579 43.0944C97.3906 41.0433 99.0603 38.3382 97.9047 36.0424C101.185 39.9925 107.124 41.5202 112.222 42.2883C117.32 43.0564 122.13 43.8793 127.266 44.3013C128.681 44.4153 130.113 44.5883 131.43 45.1158C132.747 45.6434 133.384 46.5718 133.975 47.8548C134.467 45.7531 133.932 43.5206 132.262 42.1448C130.593 40.769 128.443 40.1064 126.319 39.6549C121.883 38.7095 117.32 38.5365 112.842 37.8233C108.369 37.1143 103.836 35.7807 100.36 32.8856C99.7146 32.3454 99.1028 31.7504 98.3593 31.3579C97.6158 30.9654 96.6896 30.7966 95.9291 31.1553C94.8755 31.6576 94.5016 32.9405 94.3232 34.0842C93.8983 36.8104 93.9323 39.5958 93.3927 42.301C92.8574 45.0103 90.7629 47.4201 89.892 49.3656Z" fill="#F18361"/>
<path d="M126.361 54.7887C123.426 52.417 120.855 53.2399 118.756 56.1265C120.401 55.0926 121.577 54.4849 123.579 54.5693C124.416 54.6157 124.751 54.6748 125.58 54.8183C125.928 54.8183 127.113 55.3289 126.361 54.7887Z" fill="#2F3961"/>
<path d="M101.359 57.0297C100.437 57.3799 99.7656 58.1691 99.294 59.0047C99.158 59.2495 99.0391 59.5027 98.9541 59.7686C99.2133 59.528 99.4979 59.3212 99.7868 59.1145C100.687 58.4645 101.21 58.1944 102.174 57.9244C103.266 57.5867 103.436 57.5445 104.447 57.5488C105.038 57.5952 105.442 57.6036 106.066 57.9117C104.974 56.5697 102.892 56.3629 101.359 57.0297Z" fill="#2F3961"/>
<path d="M101.015 44.0018C99.0943 43.871 97.7263 43.7824 96.3412 44.8543C94.5271 46.2596 94.3529 46.7281 93.6987 48.3149C93.2568 47.3611 93.7326 45.462 94.3147 44.5884C95.1177 43.3857 95.568 42.7822 96.9445 42.3137C98.321 41.8495 99.5234 41.6343 100.9 42.1027C101.422 42.28 102.23 42.5543 102.289 43.1831C102.336 43.7317 101.877 44.0609 101.015 44.0018Z" fill="#701934"/>
<path d="M117.907 42.242C119.755 41.7102 121.072 41.3346 122.657 42.09C124.73 43.0818 124.998 43.4996 125.979 44.9176C126.204 43.8921 125.337 42.1365 124.581 41.4064C123.54 40.3977 122.971 39.904 121.526 39.7394C120.082 39.5748 118.858 39.6212 117.618 40.364C117.142 40.6509 116.411 41.0856 116.492 41.7144C116.56 42.2589 117.078 42.4825 117.907 42.242Z" fill="#701934"/>
<path d="M111.895 58.8021C111.895 58.8021 111.113 61.2667 112.847 63.2418C112.847 63.2418 109.949 62.1783 111.895 58.8021Z" fill="#F18361"/>
<path d="M109.435 66.964C109.435 66.964 115.03 69.3949 118.319 65.259C118.319 65.2633 116.441 70.4119 109.435 66.964Z" fill="#C9102C"/>
<path d="M101.452 65.9385C105.852 65.9385 109.418 62.4336 109.418 58.11C109.418 53.7864 105.852 50.2815 101.452 50.2815C97.0527 50.2815 93.4862 53.7864 93.4862 58.11C93.4862 62.4336 97.0527 65.9385 101.452 65.9385Z" stroke="white" stroke-width="3" stroke-miterlimit="10"/>
<path d="M123.171 62.5918C127.57 62.5918 131.137 59.0869 131.137 54.7633C131.137 50.4398 127.57 46.9348 123.171 46.9348C118.771 46.9348 115.205 50.4398 115.205 54.7633C115.205 59.0869 118.771 62.5918 123.171 62.5918Z" stroke="white" stroke-width="3" stroke-miterlimit="10"/>
<path d="M107.294 52.5646C109.567 50.4841 113.144 49.9439 115.94 51.2648" stroke="white" stroke-width="3" stroke-miterlimit="10"/>
<path d="M130.334 50.674C131.638 50.2097 132.938 49.7497 134.242 49.2855" stroke="white" stroke-width="3" stroke-miterlimit="10"/>
<path d="M94.4124 54.8182C93.0062 54.6662 91.6339 54.24 90.3933 53.569" stroke="white" stroke-width="3" stroke-miterlimit="10"/>
<path d="M90.6227 53.1175C90.6227 51.6151 90.542 49.6738 91.3874 48.2051C92.2329 46.7365 93.431 45.5 94.3911 44.1031C96.7108 40.7396 97.5945 36.4307 96.6429 32.4975C97.0932 34.1982 98.6142 35.3925 100.148 36.2703C106.767 40.0601 114.784 40.1529 122.346 41.2375C124.925 41.6089 127.538 42.1238 129.794 43.4152C132.05 44.7066 133.698 46.7112 133.975 49.2855C136.43 42.7948 131.502 36.0424 125.775 32.6705C122.261 30.6026 118.153 29.8303 114.198 28.8132C110.361 27.8299 106.559 26.5765 102.612 26.26C98.6651 25.9435 94.4379 26.6736 91.4257 29.231C89.4501 30.9064 88.1331 33.2613 87.4066 35.7386C86.6801 38.2159 86.5101 40.824 86.5611 43.4025C86.5951 45.1497 86.731 46.918 87.2834 48.5723C87.8484 50.2393 88.7491 51.8472 90.6227 53.1175Z" fill="#A83246"/>
<path d="M102.786 166C102.807 162.67 102.786 159.307 102.421 155.627C102.421 155.627 102.421 155.624 102.421 155.618C102.404 155.403 102.383 155.184 102.357 154.968C110.289 156.986 118.71 156.209 126.162 153.356H126.166C126.778 153.12 127.372 152.871 127.971 152.609H127.984C128.073 152.567 128.163 152.529 128.248 152.491C128.248 152.491 128.25 152.491 128.256 152.491C128.256 152.491 128.26 152.487 128.265 152.491C128.554 152.36 128.825 152.229 129.11 152.094H129.114L129.216 152.044C129.212 152.175 129.212 152.31 129.212 152.445C129.208 152.466 129.208 152.487 129.208 152.508C129.208 152.584 129.208 152.664 129.208 152.744V152.761C129.208 152.888 129.199 153.01 129.199 153.141C129.187 153.977 129.178 154.838 129.174 155.715C129.153 159.032 129.17 162.561 129.178 166H156.5C156.577 164.05 156.301 160.543 155.935 156.509C155.629 153.145 155.26 149.415 154.971 145.92C149.69 82.2201 158.174 99.5062 157.002 97.1429C155.859 94.8428 153.824 92.8087 151.304 91.0446H151.3C144.073 85.9719 132.849 83.0642 127.126 82.1315H127.122C126.79 82.0766 126.48 82.0302 126.191 81.9922C124.959 81.815 124.088 81.7601 123.714 81.8192C121.437 82.1737 122.402 83.5411 122.053 84.9126C121.964 85.2587 121.794 85.6048 121.467 85.9382C121.314 86.0901 121.131 86.242 120.906 86.3855C115.897 89.6097 108.921 89.4663 104.328 85.3684C104.256 85.3093 104.188 85.246 104.116 85.1785C103.555 85.2207 102.99 85.2671 102.429 85.3178C98.4485 85.6723 94.4634 86.3095 90.8946 88.0525C89.1102 88.9219 87.4363 90.1204 86.0683 91.5679C82.2956 94.2182 77.9366 99.8438 75.9101 104.068C75.7316 104.431 75.5744 104.786 75.4385 105.123C77.8984 109.432 80.4687 118.164 82.9924 124.979C82.9881 124.988 82.9881 124.992 82.9924 124.996C83.3535 125.971 83.7146 126.908 84.0715 127.786C83.9525 129.504 83.8166 131.225 83.6806 132.939C83.5574 134.513 83.4342 136.138 83.3195 137.796C82.9839 142.574 82.6865 147.638 82.423 152.656C82.1766 157.23 81.96 161.763 81.773 166H102.786Z" fill="#FE8057"/>
<path d="M84.4666 138.324C85.0189 123.452 85.9324 108.597 87.9547 92.9733C84.4411 107.622 82.6015 122.663 82.4741 137.72C83.6849 137.822 84.8957 137.927 84.4666 138.324Z" fill="#FEB157"/>
<path d="M81.9133 100.274L84.0927 124.064C81.4247 116.358 80.7194 107.993 81.9133 100.274Z" fill="#FEB157"/>
<path d="M105.896 79.8399C104.97 79.9159 104.809 81.5955 104.579 82.4902C104.286 83.6423 104.35 83.9926 103.959 84.2289C103.181 84.6932 102.731 84.4315 102.336 85.5541C100.173 91.7198 102.561 97.0626 103.211 103.916C103.347 105.832 103.479 107.748 103.003 109.314C102.65 122.321 102.302 135.332 101.949 148.338C101.886 150.63 102.026 152.356 102.183 153.846C102.293 154.922 102.106 155.977 103.347 156.538C106.682 158.045 129.212 157.277 129.331 155.471C129.484 153.213 128.825 150.533 128.192 147.11C124.415 126.743 124.454 103.705 127.207 83.0641C127.326 81.9922 127.143 82.5071 126.54 80.8105C126.387 80.3885 125.868 78.2362 125.503 77.9703C124.704 77.3922 124.11 78.1518 123.311 78.73C118.701 82.0682 111.95 82.4438 105.896 79.8399Z" fill="#FFE8AF"/>
<path d="M122.041 84.9168C120.201 85.3304 118.79 85.3852 116.475 85.5118C114.24 85.6849 112.001 85.6385 109.779 85.3684C108.645 85.2164 107.031 85.0603 105.718 84.5159C107.341 85.5456 109.24 86.0647 111.092 86.5289C115.319 87.5333 119.946 87.0396 123.736 84.8788C124.029 84.7142 124.564 84.4315 124.7 84.3091C123.821 84.5539 122.928 84.7269 122.041 84.9168Z" fill="#F1D282"/>
<path d="M61.8389 76.0037C60.9807 75.6998 60.0078 76.3075 59.6127 77.122C59.2176 77.9365 59.2558 78.8861 59.345 79.7892C59.4343 80.6881 59.566 81.6123 59.3238 82.4859C58.729 84.6636 56.2266 85.6089 54.5655 87.1493C51.9271 89.597 51.5193 93.8848 53.1634 97.0752C54.8076 100.266 58.1725 102.372 61.7072 103.081C61.7455 104.499 61.7879 105.917 61.8262 107.335C61.8687 108.803 61.9749 110.424 63.0243 111.454C64.3668 112.77 66.559 112.5 68.3944 112.061C70.0853 111.66 71.8697 111.124 72.9786 109.791C74.3466 108.149 74.2871 105.765 73.8792 103.676C73.4714 101.582 72.7746 99.4723 73.1995 97.3411C75.1198 93.1251 73.9515 87.7317 70.4634 84.6678C68.9679 83.3553 67.1411 82.4733 65.5436 81.2832C63.9462 80.0931 63.4661 77.5103 61.8389 76.0037Z" fill="#F9AF88"/>
<path d="M60.849 93.0745L25 46.9179L31.2921 42.0013L67.1369 88.1579L60.849 93.0745Z" fill="#FED401"/>
<g opacity="0.67">
<mask id="mask1_495_634" style="mask-type:luminance" maskUnits="userSpaceOnUse" x="25" y="42" width="43" height="52">
<path d="M61.104 93.0745L25.0085 46.9221L31.2964 42.0013L67.1369 88.1579L61.104 93.0745Z" fill="white"/>
</mask>
<g mask="url(#mask1_495_634)">
<path d="M25.1487 46.9475C25.1487 46.9475 49.8879 81.5786 54.0387 79.6289C58.1895 77.6834 31.2453 42.0225 31.2453 42.0225C31.2453 42.0225 71.02 87.2 69.9834 91.3738C68.9467 95.5476 59.7232 97.5817 59.7232 97.5817C59.7232 97.5817 23.4663 52.5899 25.1487 46.9475Z" fill="#EB9307"/>
</g>
</g>
<path d="M29.6266 46.4284L32.0865 44.5884" stroke="#014B73" stroke-miterlimit="10"/>
<path d="M35.5363 54.8351L37.9962 52.9951" stroke="#014B73" stroke-miterlimit="10"/>
<path d="M31.8826 47.0783L33.1232 46.0739" stroke="#014B73" stroke-miterlimit="10"/>
<path d="M33.0934 48.7579L34.334 47.7493" stroke="#014B73" stroke-miterlimit="10"/>
<path d="M34.2023 50.3363L35.4429 49.3276" stroke="#014B73" stroke-miterlimit="10"/>
<path d="M35.3919 52.1046L36.6325 51.1002" stroke="#014B73" stroke-miterlimit="10"/>
<path d="M41.9048 63.0434L44.3053 61.1274" stroke="#014B73" stroke-miterlimit="10"/>
<path d="M37.9325 55.4681L39.1391 54.4215" stroke="#014B73" stroke-miterlimit="10"/>
<path d="M39.2156 57.0929L40.4222 56.0463" stroke="#014B73" stroke-miterlimit="10"/>
<path d="M40.3881 58.6206L41.5947 57.574" stroke="#014B73" stroke-miterlimit="10"/>
<path d="M41.6542 60.3341L42.8608 59.2875" stroke="#014B73" stroke-miterlimit="10"/>
<path d="M49.0764 71.851L51.4726 69.9308" stroke="#014B73" stroke-miterlimit="10"/>
<path d="M45.0998 64.2715L46.3106 63.2249" stroke="#014B73" stroke-miterlimit="10"/>
<path d="M46.3829 65.8962L47.5895 64.8496" stroke="#014B73" stroke-miterlimit="10"/>
<path d="M47.5597 67.4282L48.7663 66.3773" stroke="#014B73" stroke-miterlimit="10"/>
<path d="M48.8215 69.1416L50.0281 68.095" stroke="#014B73" stroke-miterlimit="10"/>
<path d="M55.5894 80.629L57.9898 78.713" stroke="#014B73" stroke-miterlimit="10"/>
<path d="M51.617 73.0537L52.8236 72.0071" stroke="#014B73" stroke-miterlimit="10"/>
<path d="M52.9001 74.6784L54.1067 73.6318" stroke="#014B73" stroke-miterlimit="10"/>
<path d="M54.0726 76.2062L55.2792 75.1595" stroke="#014B73" stroke-miterlimit="10"/>
<path d="M55.3387 77.9197L56.5453 76.873" stroke="#014B73" stroke-miterlimit="10"/>
<path d="M62.6589 89.099L65.0551 87.1788" stroke="#014B73" stroke-miterlimit="10"/>
<path d="M58.6823 81.5195L59.8931 80.4729" stroke="#014B73" stroke-miterlimit="10"/>
<path d="M59.9654 83.1443L61.172 82.0977" stroke="#014B73" stroke-miterlimit="10"/>
<path d="M61.1422 84.672L62.3488 83.6254" stroke="#014B73" stroke-miterlimit="10"/>
<path d="M62.404 86.3896L63.6106 85.343" stroke="#014B73" stroke-miterlimit="10"/>
<path d="M42.6314 80.4771C46.2469 79.5022 49.9728 78.9409 53.72 78.8143C54.7864 78.7764 55.959 78.8143 56.7662 79.5107C57.378 80.0424 57.6584 80.9202 57.463 81.7052C57.2718 82.4902 56.6133 83.1401 55.7551 83.4481C57.0381 83.0303 58.4869 83.1443 59.6892 83.752C60.0206 83.9208 60.3435 84.1318 60.5814 84.4146C60.9213 84.8239 61.0742 85.3768 61.019 85.9085C60.9213 86.8454 60.1565 87.6726 59.1496 87.757C59.9909 87.4278 61.0232 87.681 61.6138 88.3563C62.2043 89.0315 62.3105 90.0866 61.8687 90.8673C61.4906 91.5341 60.7938 91.9519 60.1141 92.3191C57.7009 93.6189 55.1348 94.6402 52.5432 95.442C53.7923 96.0455 55.2198 96.2734 56.5963 96.0877C57.3313 95.9864 58.0663 95.7712 58.8055 95.8303C59.5448 95.8894 60.3307 96.3283 60.4837 97.0499C60.6706 97.9446 59.8464 98.7085 59.0817 99.2191C57.2548 100.43 55.2495 101.371 53.1465 102.004C51.6255 102.464 49.7901 102.697 48.6091 101.637C47.4662 100.616 47.479 98.7338 48.2819 97.434C49.0849 96.1341 50.4784 95.3154 51.8719 94.6064C51.2771 94.8681 50.5591 94.695 50.0408 94.3068C49.4078 93.8299 49.0254 93.0365 49.0806 92.2515C49.1359 91.4666 49.6457 90.7238 50.5889 90.0866C49.8071 90.479 48.9744 90.8335 48.0992 90.88C47.224 90.9264 46.2809 90.6014 45.788 89.8798C45.2825 89.137 45.3462 88.1199 45.7498 87.3181C46.1534 86.5163 46.8502 85.9043 47.7933 85.0983C46.8034 85.4021 45.7328 85.5161 44.7344 85.2544C43.7318 84.9928 42.8141 84.3175 42.4147 83.3722C42.0153 82.4142 42.2193 81.203 42.6314 80.4771Z" fill="#FABE93"/>
<path d="M61.8772 107.276C60.1438 106.811 58.7928 108.575 58.232 110.272C57.6712 111.968 58.0068 113.813 58.3509 115.539C57.2463 115.762 56.3924 116.695 55.9803 117.733C55.5681 118.771 55.5299 119.919 55.5342 121.038C55.5639 128.6 57.412 136.155 60.8788 142.89C63.0201 147.051 65.9303 151.044 70.1023 153.213C74.2744 155.382 79.9079 155.26 83.2303 151.947C86.1915 148.993 86.6631 144.422 86.6334 140.252C86.5526 128.963 84.012 117.695 79.2367 107.449C78.7693 106.444 78.2553 105.419 77.3971 104.722C76.5389 104.026 75.0349 103.785 73.994 104.191C73.96 106.069 72.7364 107.655 71.0498 108.508C69.3631 109.36 67.4385 109.58 65.5607 109.787C64.5665 109.901 61.2569 109.685 61.8772 107.276Z" fill="#FFC558"/>
<path d="M75.9186 113.353C72.7025 114.104 69.4608 114.779 66.2065 115.34C64.7152 115.615 62.0811 115.67 60.0504 115.661C62.0259 116.083 64.0015 116.594 66.0365 116.632C70.0386 116.716 74.062 115.535 77.3503 113.256C77.601 113.087 77.8474 112.91 78.0938 112.732C77.3758 112.956 76.6493 113.163 75.9186 113.353Z" fill="#FEB157"/>
<path d="M133.579 105.71L136.732 109.445L108.025 113.804C108.025 113.804 102.187 114.429 101.269 112.445C100.348 110.462 99.1409 108.972 102.191 107.744C105.242 106.52 133.579 105.71 133.579 105.71Z" fill="white"/>
<path d="M103.568 112.158L106.189 154.323L135.984 151.976C137.803 151.833 139.183 150.292 139.115 148.482L137.739 111.361C137.675 109.668 136.175 108.39 134.48 108.584L103.568 112.158Z" fill="#37C6FF"/>
<path opacity="0.37" d="M137.879 115.497C137.879 115.497 122.236 148.473 106.109 154.259C106.109 154.259 133.41 153.538 140.037 151.782L137.879 115.497Z" fill="#5271FF"/>
<path d="M110.497 123.097L110.238 120.426C110.17 119.708 110.697 119.071 111.419 119.004L129.586 117.265C130.308 117.197 130.95 117.721 131.018 118.438L131.277 121.11C131.345 121.827 130.818 122.464 130.096 122.532L111.929 124.27C111.207 124.342 110.565 123.815 110.497 123.097Z" fill="#5CE1E6"/>
<path d="M101.206 109.183C100.866 109.436 100.488 111.876 103.899 112.12L106.181 154.318C106.181 154.318 102.264 155.42 101.665 152.58L99.2174 111.319C99.2174 111.319 98.355 108.259 103.181 107.09C110.038 105.427 134.697 104.798 134.697 104.798C134.697 104.798 135.984 105.436 134.829 106.145C134.833 106.145 103.742 107.288 101.206 109.183Z" fill="#5271FF"/>
<path d="M126.714 148.039C124.012 146.351 120.01 146.043 117.524 144.489C113.085 146.266 108.05 146.541 103.44 145.258C102.667 145.042 101.835 144.73 101.444 144.029C101.053 143.329 101.512 142.202 102.247 142.135C101.469 141.734 100.619 141.472 99.8632 141.029C99.107 140.59 98.4187 139.915 98.2615 139.058C98.1043 138.201 98.6821 137.193 99.8165 137.226C98.4825 136.889 97.2716 136.083 96.4517 134.981C96.1458 134.572 95.8824 134.074 95.9801 133.572C96.065 133.137 96.4092 132.787 96.8043 132.584C97.1994 132.382 97.6497 132.301 98.1128 132.095C97.0465 131.728 96.1628 130.879 95.7592 129.833C95.568 129.339 95.4872 128.765 95.7252 128.288C96.082 127.583 96.9785 127.368 97.7645 127.296C99.4299 127.14 101.121 127.267 102.714 127.583C103.602 127.773 104.49 127.967 105.374 128.157C103.721 127.33 102.332 125.992 101.452 124.372C101.223 123.95 101.027 123.426 101.252 123C101.609 122.333 102.595 122.481 103.313 122.726C105.548 123.481 107.778 124.241 110.009 124.996C112.056 125.693 114.164 126.418 115.795 127.832C117.282 129.119 118.268 130.888 119.653 132.289C121.947 134.614 125.15 135.775 128.239 136.868C127.241 140.223 127.755 144.553 126.714 148.039Z" fill="#F9AF88"/>
<path d="M118.544 144.971C118.544 144.971 125.155 139.974 125.155 135.72L126.599 136.032L125.057 148.63L118.544 144.971Z" fill="#F18361"/>
<path d="M150.319 90.8462C138.958 89.3438 134.981 100.827 137.114 114.686C137.964 120.215 138.24 127.706 139.039 132.901C136.796 132.901 132.097 132.778 131.867 134.64C131.022 134.306 130.164 133.964 129.259 133.876C128.354 133.787 127.381 133.977 126.71 134.585C126 135.226 125.741 136.214 125.529 137.142C124.789 140.43 124.288 143.768 124.029 147.123C123.918 148.537 123.901 150.107 124.819 151.195C125.992 152.58 128.107 152.55 129.233 152.445C129.718 155.015 132.751 156.129 135.343 156.597C141.193 157.652 147.213 157.792 153.106 157.007C156.322 156.58 159.687 155.787 162.002 153.529C164.526 151.069 165.312 147.368 165.669 143.873C167.13 129.651 164.037 92.6609 150.319 90.8462Z" fill="#FFC558"/>
<path d="M129.837 142.898C129.509 144.907 129.416 147.604 129.531 149.309C130.814 144.886 131.438 140.295 131.37 135.69C130.928 138.108 130.24 140.476 129.837 142.898Z" fill="#FEB157"/>
</g>
<defs>
<filter id="filter0_d_495_634" x="18.1393" y="11" width="158.259" height="167.144" filterUnits="userSpaceOnUse" color-interpolation-filters="sRGB">
<feFlood flood-opacity="0" result="BackgroundImageFix"/>
<feColorMatrix in="SourceAlpha" type="matrix" values="0 0 0 0 0 0 0 0 0 0 0 0 0 0 0 0 0 0 127 0" result="hardAlpha"/>
<feOffset dy="2"/>
<feGaussianBlur stdDeviation="2"/>
<feComposite in2="hardAlpha" operator="out"/>
<feColorMatrix type="matrix" values="0 0 0 0 0 0 0 0 0 0 0 0 0 0 0 0 0 0 0.25 0"/>
<feBlend mode="normal" in2="BackgroundImageFix" result="effect1_dropShadow_495_634"/>
<feBlend mode="normal" in="SourceGraphic" in2="effect1_dropShadow_495_634" result="shape"/>
</filter>
</defs>
</svg>
